<svg width="14" height="13" viewBox="0 0 14 13" fill="#4F4F4F" xmlns="http://www.w3.org/2000/svg">
<path d="M6.99977 9.24001C8.23688 9.24001 9.23977 8.23713 9.23977 7.00001C9.23977 5.76289 8.23688 4.76001 6.99977 4.76001C5.76265 4.76001 4.75977 5.76289 4.75977 7.00001C4.75977 8.23713 5.76265 9.24001 6.99977 9.24001Z" fill="inherit"/>
<path d="M4.9 0L3.619 1.4H1.4C0.63 1.4 0 2.03 0 2.8V11.2C0 11.97 0.63 12.6 1.4 12.6H12.6C13.37 12.6 14 11.97 14 11.2V2.8C14 2.03 13.37 1.4 12.6 1.4H10.381L9.1 0H4.9ZM7 10.5C5.068 10.5 3.5 8.932 3.5 7C3.5 5.068 5.068 3.5 7 3.5C8.932 3.5 10.5 5.068 10.5 7C10.5 8.932 8.932 10.5 7 10.5Z" fill="inherit"/>
</svg>
