<svg width="25" height="20" viewBox="0 0 25 20" fill="none" xmlns="http://www.w3.org/2000/svg">
<path fill-rule="evenodd" clip-rule="evenodd" d="M0 18.5938C0 18.3037 0.115234 18.0255 0.320352 17.8204C0.52547 17.6152 0.803669 17.5 1.09375 17.5H22.9688C23.2588 17.5 23.537 17.6152 23.7421 17.8204C23.9473 18.0255 24.0625 18.3037 24.0625 18.5938C24.0625 18.8838 23.9473 19.162 23.7421 19.3671C23.537 19.5723 23.2588 19.6875 22.9688 19.6875H1.09375C0.803669 19.6875 0.52547 19.5723 0.320352 19.3671C0.115234 19.162 0 18.8838 0 18.5938ZM0 9.84375C0 9.55367 0.115234 9.27547 0.320352 9.07035C0.52547 8.86523 0.803669 8.75 1.09375 8.75H22.9688C23.2588 8.75 23.537 8.86523 23.7421 9.07035C23.9473 9.27547 24.0625 9.55367 24.0625 9.84375C24.0625 10.1338 23.9473 10.412 23.7421 10.6171C23.537 10.8223 23.2588 10.9375 22.9688 10.9375H1.09375C0.803669 10.9375 0.52547 10.8223 0.320352 10.6171C0.115234 10.412 0 10.1338 0 9.84375ZM0 1.09375C0 0.803669 0.115234 0.52547 0.320352 0.320352C0.52547 0.115234 0.803669 0 1.09375 0H22.9688C23.2588 0 23.537 0.115234 23.7421 0.320352C23.9473 0.52547 24.0625 0.803669 24.0625 1.09375C24.0625 1.38383 23.9473 1.66203 23.7421 1.86715C23.537 2.07227 23.2588 2.1875 22.9688 2.1875H1.09375C0.803669 2.1875 0.52547 2.07227 0.320352 1.86715C0.115234 1.66203 0 1.38383 0 1.09375Z" fill="#4D77FF"/>
</svg>
