<svg width="177" height="176" viewBox="0 0 177 176" fill="none" xmlns="http://www.w3.org/2000/svg">
<g filter="url(#filter0_d_41_67)">
<rect x="15.8613" y="13" width="145.277" height="145.277" rx="8" fill="#F9E000"/>
</g>
<path d="M88.2515 53.5022C68.9627 53.5022 53.3271 65.8603 53.3271 81.1133C53.3271 91.038 59.948 99.7361 69.8925 104.603C69.1605 107.326 67.2481 114.481 66.8656 116.011C66.3908 117.91 67.558 117.884 68.3296 117.376C68.9297 116.974 77.8982 110.874 81.7691 108.243C83.8728 108.553 86.0358 108.718 88.2515 108.718C107.54 108.718 123.176 96.3597 123.176 81.1133C123.176 65.8668 107.54 53.5022 88.2515 53.5022Z" fill="#371C1D"/>
<path d="M63.8849 76.029H67.4789C67.4789 76.029 67.4987 85.9009 67.4789 88.2024C67.4789 89.884 71.218 89.9038 71.2114 88.2288L71.2246 76.1609C71.2246 76.1609 72.4313 76.1675 74.7988 76.1675C77.0343 76.1675 77.0343 72.6526 74.7988 72.6526C72.2797 72.6526 63.8651 72.5801 63.8651 72.5801C61.7549 72.5801 61.7615 76.029 63.8651 76.029" fill="#F9E000"/>
<mask id="mask0_41_67" style="mask-type:luminance" maskUnits="userSpaceOnUse" x="62" y="72" width="15" height="18">
<path d="M63.8849 76.029H67.4789C67.4789 76.029 67.4987 85.9009 67.4789 88.2024C67.4789 89.884 71.218 89.9038 71.2114 88.2288L71.2246 76.1609C71.2246 76.1609 72.4313 76.1675 74.7988 76.1675C77.0343 76.1675 77.0343 72.6526 74.7988 72.6526C72.2797 72.6526 63.8651 72.5801 63.8651 72.5801C61.7549 72.5801 61.7615 76.029 63.8651 76.029" fill="white"/>
</mask>
<g mask="url(#mask0_41_67)">
<path d="M77.0475 72.58H61.7747V89.9037H77.0475V72.58Z" fill="#F9E000"/>
</g>
<path d="M81.0898 76.6686L83.0879 82.9333H78.9202L81.0898 76.6686ZM78.8476 73.734C77.964 75.6794 74.7656 84.8787 73.7105 87.3186C72.9456 89.0794 76.2494 90.517 77.0144 88.7562L77.7332 86.2438H84.3079C84.3079 86.2438 84.0836 86.3493 84.9541 88.6507C85.6597 90.517 89.0757 89.2245 88.3701 87.3582C87.3611 84.694 83.866 75.0925 83.2264 73.734C82.9362 73.1075 81.8811 72.6525 80.8589 72.6525C80.0149 72.6525 79.1905 72.9625 78.841 73.734" fill="#F9E000"/>
<mask id="mask1_41_67" style="mask-type:luminance" maskUnits="userSpaceOnUse" x="73" y="72" width="16" height="18">
<path d="M81.0898 76.6686L83.0879 82.9333H78.9202L81.0898 76.6686ZM78.8476 73.734C77.964 75.6794 74.7656 84.8787 73.7105 87.3186C72.9456 89.0794 76.2494 90.517 77.0144 88.7562L77.7332 86.2438H84.3079C84.3079 86.2438 84.0836 86.3493 84.9541 88.6507C85.6597 90.517 89.0757 89.2245 88.3701 87.3582C87.3611 84.694 83.866 75.0925 83.2264 73.734C82.9362 73.1075 81.8811 72.6525 80.8589 72.6525C80.0149 72.6525 79.1905 72.9625 78.841 73.734" fill="white"/>
</mask>
<g mask="url(#mask1_41_67)">
<path d="M89.0823 72.6525H72.939V90.5235H89.0823V72.6525Z" fill="#F9E000"/>
</g>
<path d="M89.6363 74.3077C89.6363 77.4335 89.656 87.5099 89.656 87.5099C89.656 87.5099 89.3659 89.5146 91.087 89.5146C92.8082 89.5146 96.6132 89.4948 98.3014 89.4948C99.9896 89.4948 99.983 85.9008 98.2948 85.9008C96.6066 85.9008 93.5204 85.8811 93.5204 85.8811C93.5204 85.8811 93.5336 76.5631 93.527 74.2946C93.527 73.1999 92.551 72.6525 91.5816 72.6525C90.6122 72.6525 89.6297 73.2065 89.6363 74.3011" fill="#F9E000"/>
<mask id="mask2_41_67" style="mask-type:luminance" maskUnits="userSpaceOnUse" x="89" y="72" width="11" height="18">
<path d="M89.6363 74.3077C89.6363 77.4335 89.656 87.5099 89.656 87.5099C89.656 87.5099 89.3659 89.5146 91.087 89.5146C92.8082 89.5146 96.6132 89.4948 98.3014 89.4948C99.9896 89.4948 99.983 85.9008 98.2948 85.9008C96.6066 85.9008 93.5204 85.8811 93.5204 85.8811C93.5204 85.8811 93.5336 76.5631 93.527 74.2946C93.527 73.1999 92.551 72.6525 91.5816 72.6525C90.6122 72.6525 89.6297 73.2065 89.6363 74.3011" fill="white"/>
</mask>
<g mask="url(#mask2_41_67)">
<path d="M99.9897 72.6525H89.366V89.508H99.9897V72.6525Z" fill="#F9E000"/>
</g>
<path d="M100.438 73.8066C100.478 75.1783 100.392 87.5759 100.392 88.4925C100.392 89.9433 104.085 89.9367 104.085 88.4925C104.085 86.8109 104.085 83.6126 104.085 83.6126L105.166 82.7421L109.908 89.2047C110.864 90.4709 113.878 88.1826 112.921 86.923L107.89 80.2956C107.89 80.2956 111.306 76.6027 112.651 75.264C113.436 74.4859 111.002 72.0327 110.218 72.8174C109.459 73.5692 104.105 78.9305 104.105 78.9305C104.105 78.9305 104.151 75.5673 104.105 73.7077C104.085 73.0021 103.221 72.6592 102.331 72.6592C101.381 72.6592 100.412 73.0483 100.431 73.8066" fill="#F9E000"/>
<mask id="mask3_41_67" style="mask-type:luminance" maskUnits="userSpaceOnUse" x="100" y="72" width="14" height="18">
<path d="M100.438 73.8066C100.478 75.1783 100.392 87.5759 100.392 88.4925C100.392 89.9433 104.085 89.9367 104.085 88.4925C104.085 86.8109 104.085 83.6126 104.085 83.6126L105.166 82.7421L109.908 89.2047C110.864 90.4709 113.878 88.1826 112.921 86.923L107.89 80.2956C107.89 80.2956 111.306 76.6027 112.651 75.264C113.436 74.4859 111.002 72.0327 110.218 72.8174C109.459 73.5692 104.105 78.9305 104.105 78.9305C104.105 78.9305 104.151 75.5673 104.105 73.7077C104.085 73.0021 103.221 72.6592 102.331 72.6592C101.381 72.6592 100.412 73.0483 100.431 73.8066" fill="white"/>
</mask>
<g mask="url(#mask3_41_67)">
<path d="M113.878 72.0392H100.392V90.4774H113.878V72.0392Z" fill="#F9E000"/>
</g>
<defs>
<filter id="filter0_d_41_67" x="0.861328" y="0" width="175.277" height="175.277" filterUnits="userSpaceOnUse" color-interpolation-filters="sRGB">
<feFlood flood-opacity="0" result="BackgroundImageFix"/>
<feColorMatrix in="SourceAlpha" type="matrix" values="0 0 0 0 0 0 0 0 0 0 0 0 0 0 0 0 0 0 127 0" result="hardAlpha"/>
<feOffset dy="2"/>
<feGaussianBlur stdDeviation="7.5"/>
<feComposite in2="hardAlpha" operator="out"/>
<feColorMatrix type="matrix" values="0 0 0 0 0 0 0 0 0 0 0 0 0 0 0 0 0 0 0.25 0"/>
<feBlend mode="normal" in2="BackgroundImageFix" result="effect1_dropShadow_41_67"/>
<feBlend mode="normal" in="SourceGraphic" in2="effect1_dropShadow_41_67" result="shape"/>
</filter>
</defs>
</svg>
