<svg width="76" height="31" viewBox="0 0 76 31" fill="#4D77FF" xmlns="http://www.w3.org/2000/svg">
<path d="M11.96 3.52H11.48C9.10667 3.52 7.25333 4.12 5.92 5.32C4.61333 6.49333 3.96 8.58667 3.96 11.6C3.96 12.5867 4.05333 13.28 4.24 13.68C4.42667 14.0533 4.52 14.2667 4.52 14.32C3.08 14.32 2 14.0267 1.28 13.44C0.586667 12.8267 0.24 11.8267 0.24 10.44C0.24 8.54667 0.706667 6.82667 1.64 5.28C2.57333 3.70667 4.05333 2.44 6.08 1.48C8.13333 0.519999 10.7333 0.0399995 13.88 0.0399995C15.64 0.0399995 17.5333 0.199999 19.56 0.519998C21.2667 0.813332 22.7867 0.96 24.12 0.96C25.8267 0.96 27.3733 0.679999 28.76 0.119998C28.7067 1.85333 28.2667 3.13333 27.44 3.96C26.6133 4.78667 25.3867 5.2 23.76 5.2C22.9067 5.2 22.0533 5.13333 21.2 5C20.3467 4.86667 19.1333 4.64 17.56 4.32L12.04 30H6.28L11.96 3.52ZM21.9778 10H27.7378L27.2178 12.48C28.1245 11.68 28.9378 11.0667 29.6578 10.64C30.4045 10.2133 31.2045 10 32.0578 10C32.9111 10 33.5778 10.2933 34.0578 10.88C34.5645 11.4667 34.8178 12.1733 34.8178 13C34.8178 13.7733 34.5645 14.4533 34.0578 15.04C33.5511 15.6267 32.8445 15.92 31.9378 15.92C31.3511 15.92 30.9511 15.7867 30.7378 15.52C30.5511 15.2267 30.4045 14.8133 30.2978 14.28C30.2178 13.9333 30.1378 13.68 30.0578 13.52C29.9778 13.36 29.8311 13.28 29.6178 13.28C29.0578 13.28 28.5778 13.4 28.1778 13.64C27.8045 13.8533 27.3111 14.24 26.6978 14.8L23.4978 30H17.7378L21.9778 10ZM40.9769 7.84C40.0969 7.84 39.3502 7.53333 38.7369 6.92C38.1235 6.30667 37.8169 5.56 37.8169 4.68C37.8169 3.8 38.1235 3.05333 38.7369 2.44C39.3502 1.8 40.0969 1.48 40.9769 1.48C41.8569 1.48 42.6035 1.8 43.2169 2.44C43.8569 3.05333 44.1769 3.8 44.1769 4.68C44.1769 5.56 43.8569 6.30667 43.2169 6.92C42.6035 7.53333 41.8569 7.84 40.9769 7.84ZM38.2569 30.24C36.9769 30.24 35.9369 29.84 35.1369 29.04C34.3635 28.24 33.9769 27.04 33.9769 25.44C33.9769 24.7733 34.0835 23.9067 34.2969 22.84L37.0169 10H42.7769L39.8969 23.6C39.7902 24 39.7369 24.4267 39.7369 24.88C39.7369 25.4133 39.8569 25.8 40.0969 26.04C40.3635 26.2533 40.7902 26.36 41.3769 26.36C42.1502 26.36 42.8702 26.04 43.5369 25.4C44.2035 24.7333 44.6835 23.88 44.9769 22.84H46.6569C45.6702 25.72 44.4035 27.68 42.8569 28.72C41.3102 29.7333 39.7769 30.24 38.2569 30.24ZM48.9209 30.24C47.6409 30.24 46.6009 29.84 45.8009 29.04C45.0276 28.24 44.6409 27.04 44.6409 25.44C44.6409 24.7733 44.7476 23.9067 44.9609 22.84L49.2409 2.8L55.1609 2L50.5609 23.6C50.4543 24 50.4009 24.4267 50.4009 24.88C50.4009 25.4133 50.5209 25.8 50.7609 26.04C51.0276 26.2533 51.4543 26.36 52.0409 26.36C52.8143 26.36 53.5343 26.04 54.2009 25.4C54.8676 24.7333 55.3476 23.88 55.6409 22.84H57.3209C56.3343 25.72 55.0676 27.68 53.5209 28.72C51.9743 29.7333 50.4409 30.24 48.9209 30.24ZM61.465 30.16C59.4917 30.16 57.9317 29.6533 56.785 28.64C55.6383 27.6267 55.065 26.0267 55.065 23.84C55.065 22 55.425 19.9867 56.145 17.8C56.865 15.5867 58.0383 13.68 59.665 12.08C61.2917 10.4533 63.3717 9.64 65.905 9.64C69.0517 9.64 70.745 11.44 70.985 15.04C71.5717 14.9067 72.0917 14.5867 72.545 14.08C72.9983 13.5467 73.425 12.9467 73.825 12.28H75.105C74.385 13.72 73.745 14.8533 73.185 15.68C72.625 16.48 71.8917 17.1333 70.985 17.64C70.825 20.1467 70.305 22.3467 69.425 24.24C68.5717 26.1333 67.4517 27.6 66.065 28.64C64.6783 29.6533 63.145 30.16 61.465 30.16ZM63.065 26.56C64.0517 26.56 64.9717 25.76 65.825 24.16C66.6783 22.56 67.265 20.5867 67.585 18.24C66.945 18 66.625 17.4 66.625 16.44C66.625 15.4 66.9983 14.7067 67.745 14.36C67.6917 13.5067 67.545 12.92 67.305 12.6C67.0917 12.2533 66.7317 12.08 66.225 12.08C65.345 12.08 64.505 12.72 63.705 14C62.905 15.2533 62.2517 16.7867 61.745 18.6C61.265 20.3867 61.025 21.96 61.025 23.32C61.025 24.6 61.1717 25.4667 61.465 25.92C61.7583 26.3467 62.2917 26.56 63.065 26.56Z" fill="inherit"/>
</svg>
