<svg width="10" height="10" viewBox="0 0 10 10" fill="#4F4F4F" xmlns="http://www.w3.org/2000/svg">
<path fill-rule="evenodd" clip-rule="evenodd" d="M9.9998 9.04674L9.99782 9.04476L9.99571 9.04265L9.99348 9.04042L9.99113 9.03807L9.98864 9.03559L9.98604 9.03298L9.98331 9.03025L9.98046 9.0274L9.97748 9.02443L9.97439 9.02133L9.97116 9.01811L9.96782 9.01476L9.96436 9.0113L9.96077 9.00771L9.95707 9.00401L9.95324 9.00018L9.94929 8.99623L9.94522 8.99217L9.94104 8.98798L9.93673 8.98367L9.93231 8.97925L9.92777 8.97471L9.92311 8.97005L9.91833 8.96527L9.91344 8.96038L9.90843 8.95537L9.9033 8.95024L9.89806 8.94499L9.8927 8.93963L9.88722 8.93416L9.88163 8.92857L9.87593 8.92287L9.87011 8.91705L9.86418 8.91112L9.85814 8.90507L9.85198 8.89892L9.84571 8.89265L9.83933 8.88626L9.83283 8.87977L9.82623 8.87316L9.81951 8.86645L9.81269 8.85962L9.80575 8.85268L9.7987 8.84563L9.79154 8.83848L9.78428 8.83121L9.7769 8.82384L9.76942 8.81635L9.76183 8.80876L9.75413 8.80106L9.74633 8.79326L9.73841 8.78535L9.73039 8.77733L9.72227 8.7692L9.71404 8.76097L9.7057 8.75263L9.69726 8.74419L9.68871 8.73564L9.68006 8.72699L9.67131 8.71824L9.66245 8.70938L9.65349 8.70042L9.64443 8.69136L9.63526 8.68219L9.626 8.67292L9.61663 8.66355L9.60716 8.65408L9.59759 8.64451L9.58792 8.63484L9.57814 8.62507L9.56827 8.6152L9.5583 8.60523L9.54823 8.59516L9.53807 8.58499L9.5278 8.57472L9.51744 8.56436L9.50698 8.5539L9.49642 8.54334L9.48576 8.53268L9.47501 8.52193L9.46416 8.51108L9.45322 8.50014L9.44218 8.4891L9.43105 8.47797L9.41983 8.46674L9.40851 8.45542L9.39709 8.44401L9.38558 8.4325L9.37398 8.4209L9.36229 8.40921L9.35051 8.39742L9.33863 8.38554L9.32666 8.37358L9.3146 8.36152L9.30245 8.34937L9.29021 8.33713L9.27788 8.3248L9.26547 8.31238L9.25296 8.29987L9.24036 8.28727L9.22768 8.27459L9.2149 8.26181L9.20204 8.24895L9.1891 8.236L9.17606 8.22297L9.16294 8.20985L9.14973 8.19664L9.13644 8.18335L9.12306 8.16997L9.1096 8.15651L9.09605 8.14296L9.08242 8.12933L9.06871 8.11561L9.05491 8.10181L9.04103 8.08793L9.02707 8.07397L9.01302 8.05992L8.99889 8.04579L8.98468 8.03158L8.97039 8.01729L8.95602 8.00292L8.94157 7.98846L8.92704 7.97393L8.91243 7.95932L8.89773 7.94463L8.88297 7.92986L8.86812 7.91501L8.85319 7.90008L8.83819 7.88508L8.82311 7.87L8.80795 7.85484L8.79272 7.83961L8.7774 7.8243L8.76202 7.80891L8.74656 7.79345L8.73102 7.77791L8.71541 7.7623L8.69972 7.74661L8.68396 7.73085L8.66813 7.71502L8.65222 7.69911L8.63624 7.68313L8.62019 7.66708L8.60407 7.65095L8.58788 7.63476L8.57161 7.61849L8.55527 7.60215L8.53886 7.58574L8.52239 7.56927L8.50584 7.55272L8.48922 7.5361L8.47254 7.51941L8.45578 7.50266L8.43896 7.48583L8.42207 7.46894L8.40511 7.45198L8.38808 7.43496L8.37099 7.41787L8.35384 7.40071L8.33661 7.38348L8.31932 7.36619L8.30197 7.34884L8.28455 7.33142L8.26706 7.31393L8.24951 7.29638L8.2319 7.27877L8.21423 7.26109L8.19649 7.24335L8.17869 7.22555L8.16083 7.20769L8.1429 7.18976L8.12492 7.17178L8.10687 7.15373L8.08876 7.13562L8.07059 7.11745L8.05237 7.09922L8.03408 7.08094L8.01573 7.06259L7.99733 7.04418L7.97886 7.02572L7.96034 7.0072L7.94176 6.98862L7.92312 6.96998L7.90443 6.95128L7.88568 6.93253L7.86688 6.91373L7.84801 6.89486L7.8291 6.87595L7.81013 6.85697L7.7911 6.83795L7.77202 6.81887L7.75288 6.79973L7.7337 6.78054L7.71445 6.7613L7.69516 6.742L7.67582 6.72266L7.65642 6.70326L7.63697 6.68381L7.61747 6.66431L7.59792 6.64475L7.57831 6.62515L7.55866 6.6055L7.53896 6.5858L7.51921 6.56604L7.49941 6.54624L7.47956 6.52639L7.45966 6.5065L7.43972 6.48655L7.41973 6.46656L7.39969 6.44652L7.3796 6.42643L7.35947 6.4063L7.33929 6.38612L7.31907 6.3659L7.2988 6.34563L7.27849 6.32532L7.25813 6.30496L7.23773 6.28456L7.21729 6.26411L7.1968 6.24362L7.17627 6.22309L7.1557 6.20252L7.13508 6.1819L7.11442 6.16124L7.09373 6.14054L7.07299 6.1198L7.05221 6.09902L7.03139 6.0782L7.01053 6.05734L6.98963 6.03644L6.96869 6.0155L6.94771 5.99452L6.9267 5.97351L6.90564 5.95245L6.88455 5.93136L6.86342 5.91023L6.84226 5.88907L6.82106 5.86786L6.79982 5.84663L6.77855 5.82535L6.75724 5.80404L6.7359 5.7827L6.71452 5.76132L6.69311 5.73991L6.67166 5.71846L6.65018 5.69698L6.62867 5.67547L6.60713 5.65392L6.58555 5.63235L6.56394 5.61074L6.5423 5.5891L6.52063 5.56742L6.49893 5.54572L6.4772 5.52399L6.45544 5.50223L6.43364 5.48043L6.41182 5.45861L6.38997 5.43676L6.3681 5.41488L6.34619 5.39297L6.32426 5.37104L6.30229 5.34908L6.28031 5.32709L6.25829 5.30507L6.23625 5.28303L6.21418 5.26096L6.19209 5.23887L6.16998 5.21675L6.14783 5.19461L6.12567 5.17244L6.10348 5.15025L6.08126 5.12804L6.05903 5.1058L6.03677 5.08354L6.01449 5.06126L5.99218 5.03895L5.96986 5.01663L5.94751 4.99428L5.92514 4.97191L5.91844 4.96521L5.9226 4.96105L5.94491 4.93874L5.96719 4.91646L5.98945 4.8942L6.01168 4.87196L6.0339 4.84975L6.05609 4.82756L6.07825 4.80539L6.10039 4.78325L6.12251 4.76113L6.1446 4.73903L6.16667 4.71697L6.18871 4.69493L6.21073 4.67291L6.23271 4.65092L6.25468 4.62896L6.27661 4.60702L6.29851 4.58512L6.32039 4.56324L6.34224 4.54139L6.36406 4.51956L6.38586 4.49777L6.40762 4.47601L6.42935 4.45428L6.45105 4.43257L6.47272 4.4109L6.49436 4.38926L6.51597 4.36765L6.53755 4.34607L6.55909 4.32453L6.5806 4.30302L6.60208 4.28154L6.62353 4.26009L6.64494 4.23868L6.66632 4.2173L6.68766 4.19595L6.70897 4.17465L6.73024 4.15337L6.75148 4.13213L6.77268 4.11093L6.79384 4.08977L6.81497 4.06864L6.83606 4.04755L6.85712 4.02649L6.87813 4.00548L6.89911 3.9845L6.92005 3.96356L6.94095 3.94266L6.96181 3.9218L6.98263 3.90098L7.00341 3.8802L7.02415 3.85946L7.04484 3.83876L7.0655 3.8181L7.08612 3.79748L7.10669 3.77691L7.12722 3.75638L7.14771 3.73589L7.16815 3.71544L7.18855 3.69504L7.20891 3.67468L7.22922 3.65437L7.24949 3.6341L7.26971 3.61387L7.28989 3.5937L7.31002 3.57356L7.33011 3.55348L7.35015 3.53344L7.37014 3.51345L7.39008 3.4935L7.40998 3.4736L7.42983 3.45375L7.44963 3.43395L7.46938 3.4142L7.48908 3.3945L7.50873 3.37485L7.52833 3.35524L7.54789 3.33569L7.56739 3.31619L7.58684 3.29674L7.60623 3.27734L7.62558 3.25799L7.64487 3.2387L7.66411 3.21946L7.6833 3.20027L7.70244 3.18113L7.72152 3.16205L7.74054 3.14302L7.75952 3.12405L7.77843 3.10513L7.7973 3.08627L7.8161 3.06746L7.83485 3.04871L7.85354 3.03002L7.87218 3.01138L7.89076 2.9928L7.90928 2.97428L7.92774 2.95582L7.94615 2.93741L7.9645 2.91906L7.98278 2.90077L8.00101 2.88255L8.01918 2.86438L8.03729 2.84627L8.05534 2.82822L8.07332 2.81023L8.09125 2.79231L8.10911 2.77445L8.12691 2.75664L8.14465 2.73891L8.16232 2.72123L8.17993 2.70362L8.19748 2.68607L8.21497 2.66858L8.23239 2.65116L8.24974 2.63381L8.26703 2.61652L8.28425 2.59929L8.30141 2.58213L8.3185 2.56504L8.33553 2.54801L8.35249 2.53106L8.36938 2.51416L8.3862 2.49734L8.40296 2.48059L8.41964 2.4639L8.43626 2.44728L8.45281 2.43073L8.46928 2.41425L8.48569 2.39785L8.50203 2.38151L8.5183 2.36524L8.53449 2.34905L8.55061 2.33292L8.56666 2.31687L8.58264 2.30089L8.59855 2.28498L8.61438 2.26915L8.63014 2.25339L8.64583 2.2377L8.66144 2.22209L8.67698 2.20655L8.69244 2.19109L8.70782 2.1757L8.72313 2.16039L8.73837 2.14516L8.75353 2.13L8.76861 2.11492L8.78361 2.09991L8.79854 2.08499L8.81339 2.07014L8.82815 2.05537L8.84284 2.04068L8.85746 2.02607L8.87199 2.01153L8.88644 1.99708L8.90081 1.98271L8.9151 1.96842L8.92931 1.95421L8.94344 1.94008L8.95748 1.92603L8.97145 1.91207L8.98533 1.89819L8.99913 1.88439L9.01284 1.87067L9.02647 1.85704L9.04002 1.84349L9.05348 1.83003L9.06686 1.81665L9.08015 1.80336L9.09336 1.79015L9.10648 1.77703L9.11952 1.76399L9.13246 1.75105L9.14532 1.73819L9.1581 1.72541L9.17078 1.71273L9.18338 1.70013L9.19589 1.68762L9.2083 1.6752L9.22063 1.66287L9.23287 1.65063L9.24502 1.63848L9.25708 1.62642L9.26905 1.61445L9.28093 1.60258L9.29271 1.59079L9.3044 1.5791L9.316 1.5675L9.32751 1.55599L9.33892 1.54458L9.35025 1.53325L9.36147 1.52203L9.3726 1.51089L9.38364 1.49986L9.39458 1.48891L9.40543 1.47807L9.41618 1.46732L9.42684 1.45666L9.4374 1.4461L9.44786 1.43564L9.45822 1.42528L9.46848 1.41501L9.47865 1.40484L9.48872 1.39477L9.49869 1.3848L9.50856 1.37493L9.51834 1.36516L9.52801 1.35549L9.53758 1.34591L9.54705 1.33644L9.55642 1.32707L9.56568 1.31781L9.57485 1.30864L9.58391 1.29958L9.59287 1.29062L9.60173 1.28176L9.61048 1.273L9.61913 1.26435L9.62768 1.25581L9.63612 1.24737L9.64446 1.23903L9.65269 1.2308L9.66081 1.22267L9.66883 1.21465L9.67675 1.20674L9.68455 1.19893L9.69225 1.19124L9.69984 1.18364L9.70732 1.17616L9.7147 1.16879L9.72196 1.16152L9.72912 1.15436L9.73617 1.14732L9.7431 1.14038L9.74993 1.13355L9.75665 1.12683L9.76325 1.12023L9.76975 1.11373L9.77613 1.10735L9.7824 1.10108L9.78856 1.09492L9.7946 1.08888L9.80053 1.08295L9.80635 1.07713L9.81205 1.07143L9.81764 1.06584L9.82312 1.06036L9.82847 1.055L9.83372 1.04976L9.83885 1.04463L9.84386 1.03962L9.84875 1.03473L9.85353 1.02995L9.85819 1.02529L9.86273 1.02075L9.86715 1.01632L9.87146 1.01202L9.87564 1.00783L9.87971 1.00377L9.88366 0.999818L9.88749 0.995991L9.89119 0.992285L9.89478 0.988699L9.89824 0.985234L9.90158 0.981892L9.90481 0.978671L9.9079 0.975573L9.91088 0.972597L9.91373 0.969745L9.91646 0.967016L9.91906 0.964411L9.92155 0.96193L9.9239 0.959574L9.92613 0.957343L9.92824 0.955238L9.93022 0.953258L9.04635 0.069352L9.04437 0.0713317L9.04226 0.0734372L9.04003 0.0756682L9.03768 0.0780242L9.0352 0.0805049L9.03259 0.0831098L9.02986 0.0858387L9.02701 0.0886911L9.02404 0.0916667L9.02094 0.0947651L9.01772 0.0979858L9.01437 0.101329L9.01091 0.104793L9.00732 0.108379L9.00362 0.112085L8.99979 0.115912L8.99584 0.11986L8.99178 0.123926L8.98759 0.128113L8.98329 0.132418L8.97886 0.136842L8.97432 0.141384L8.96966 0.146044L8.96488 0.150822L8.95999 0.155716L8.95498 0.160727L8.94985 0.165855L8.94461 0.171099L8.93925 0.176458L8.93377 0.181932L8.92819 0.187521L8.92248 0.193225L8.91666 0.199043L8.91073 0.204974L8.90469 0.211019L8.89853 0.217176L8.89226 0.223447L8.88588 0.229829L8.87939 0.236323L8.87278 0.242929L8.86606 0.249645L8.85924 0.256472L8.8523 0.26341L8.84525 0.270457L8.8381 0.277614L8.83083 0.28488L8.82346 0.292255L8.81597 0.299738L8.80838 0.30733L8.80068 0.315029L8.79288 0.322835L8.78497 0.330748L8.77695 0.338767L8.76882 0.346893L8.76059 0.355124L8.75225 0.363461L8.74381 0.371902L8.73527 0.380448L8.72662 0.389099L8.71786 0.397853L8.70901 0.406711L8.70004 0.415672L8.69098 0.424735L8.68182 0.433901L8.67255 0.443169L8.66318 0.452538L8.65371 0.462009L8.64414 0.47158L8.63447 0.481252L8.6247 0.491023L8.61483 0.500895L8.60485 0.510866L8.59479 0.520935L8.58462 0.531104L8.57435 0.54137L8.56399 0.551734L8.55353 0.562196L8.54297 0.572754L8.53231 0.583409L8.52156 0.594161L8.51072 0.605008L8.49977 0.615951L8.48874 0.626989L8.4776 0.638122L8.46638 0.649349L8.45506 0.66067L8.44364 0.672084L8.43214 0.683592L8.42054 0.695193L8.40884 0.706886L8.39706 0.718672L8.38518 0.730549L8.37321 0.742517L8.36115 0.754576L8.34901 0.766726L8.33677 0.778966L8.32444 0.791296L8.31202 0.803716L8.29951 0.816224L8.28691 0.828821L8.27423 0.841506L8.26146 0.85428L8.2486 0.867141L8.23565 0.880089L8.22261 0.893124L8.20949 0.906245L8.19629 0.919452L8.18299 0.932745L8.16962 0.946123L8.15615 0.959586L8.14261 0.973134L8.12898 0.986766L8.11526 1.00048L8.10146 1.01428L8.08758 1.02816L8.07362 1.04213L8.05957 1.05617L8.04544 1.0703L8.03123 1.08451L8.01694 1.0988L8.00257 1.11318L7.98812 1.12763L7.97359 1.14216L7.95898 1.15677L7.94429 1.17146L7.92952 1.18623L7.91467 1.20108L7.89974 1.21601L7.88474 1.23101L7.86966 1.24609L7.8545 1.26125L7.83927 1.27649L7.82396 1.2918L7.80857 1.30718L7.79311 1.32265L7.77757 1.33818L7.76196 1.3538L7.74627 1.36948L7.73052 1.38524L7.71468 1.40108L7.69878 1.41698L7.6828 1.43296L7.66675 1.44902L7.65062 1.46514L7.63443 1.48134L7.61816 1.4976L7.60182 1.51394L7.58542 1.53035L7.56894 1.54683L7.55239 1.56338L7.53577 1.57999L7.51909 1.59668L7.50233 1.61343L7.48551 1.63026L7.46862 1.64715L7.45166 1.66411L7.43464 1.68113L7.41754 1.69823L7.40039 1.71539L7.38316 1.73261L7.36587 1.7499L7.34852 1.76726L7.3311 1.78468L7.31361 1.80216L7.29607 1.81971L7.27845 1.83732L7.26078 1.855L7.24304 1.87274L7.22524 1.89054L7.20738 1.9084L7.18945 1.92633L7.17147 1.94432L7.15342 1.96236L7.13531 1.98047L7.11714 1.99864L7.09892 2.01687L7.08063 2.03516L7.06228 2.0535L7.04388 2.07191L7.02541 2.09037L7.00689 2.1089L6.98831 2.12748L6.96968 2.14611L6.95098 2.16481L6.93223 2.18356L6.91343 2.20237L6.89457 2.22123L6.87565 2.24015L6.85668 2.25912L6.83765 2.27815L6.81857 2.29723L6.79944 2.31636L6.78025 2.33555L6.76101 2.35479L6.74171 2.37409L6.72237 2.39343L6.70297 2.41283L6.68352 2.43228L6.66402 2.45179L6.64447 2.47134L6.62487 2.49094L6.60521 2.51059L6.58551 2.5303L6.56576 2.55005L6.54596 2.56985L6.52611 2.5897L6.50622 2.6096L6.48627 2.62954L6.46628 2.64953L6.44624 2.66957L6.42616 2.68966L6.40602 2.70979L6.38585 2.72997L6.36562 2.75019L6.34536 2.77046L6.32504 2.79078L6.30469 2.81113L6.28429 2.83154L6.26384 2.85198L6.24335 2.87247L6.22282 2.893L6.20225 2.91358L6.18163 2.93419L6.16098 2.95485L6.14028 2.97555L6.11954 2.99629L6.09876 3.01707L6.07794 3.03789L6.05708 3.05875L6.03618 3.07965L6.01524 3.10059L5.99426 3.12157L5.97325 3.14259L5.9522 3.16364L5.9311 3.18473L5.90998 3.20586L5.88881 3.22703L5.86761 3.24823L5.84637 3.26947L5.8251 3.29074L5.80379 3.31205L5.78245 3.33339L5.76107 3.35477L5.73966 3.37618L5.71821 3.39763L5.69674 3.41911L5.67522 3.44062L5.65368 3.46217L5.6321 3.48375L5.6105 3.50535L5.58885 3.527L5.56718 3.54867L5.54548 3.57037L5.52375 3.5921L5.50199 3.61387L5.4802 3.63566L5.45838 3.65748L5.43653 3.67933L5.41465 3.70121L5.39274 3.72312L5.37081 3.74505L5.34885 3.76701L5.32686 3.789L5.30484 3.81102L5.2828 3.83306L5.26074 3.85513L5.23864 3.87722L5.21653 3.89934L5.19439 3.92148L5.17222 3.94365L5.15003 3.96584L5.12782 3.98805L5.10558 4.01029L5.08332 4.03255L5.06104 4.05484L5.03873 4.07714L5.03457 4.0813L5.01767 4.0644L4.99478 4.0415L4.97188 4.0186L4.94897 3.99569L4.92606 3.97278L4.90314 3.94987L4.88023 3.92695L4.8573 3.90402L4.83438 3.8811L4.81145 3.85817L4.78853 3.83524L4.7656 3.81231L4.74267 3.78938L4.71973 3.76645L4.6968 3.74351L4.67387 3.72058L4.65094 3.69765L4.62801 3.67472L4.60508 3.65179L4.58215 3.62886L4.55922 3.60593L4.5363 3.583L4.51338 3.56008L4.49046 3.53716L4.46754 3.51424L4.44463 3.49133L4.42172 3.46842L4.39882 3.44552L4.37592 3.42262L4.35303 3.39973L4.33014 3.37684L4.30726 3.35396L4.28438 3.33108L4.26152 3.30821L4.23866 3.28535L4.2158 3.26249L4.19296 3.23965L4.17012 3.21681L4.14729 3.19398L4.12447 3.17116L4.10166 3.14835L4.07886 3.12555L4.05607 3.10276L4.03329 3.07998L4.01052 3.05721L3.98777 3.03445L3.96502 3.0117L3.94229 2.98897L3.91957 2.96625L3.89686 2.94354L3.87416 2.92084L3.85148 2.89816L3.82882 2.87549L3.80616 2.85284L3.78353 2.8302L3.7609 2.80758L3.7383 2.78497L3.7157 2.76237L3.69313 2.7398L3.67057 2.71724L3.64803 2.6947L3.6255 2.67217L3.603 2.64966L3.58051 2.62717L3.55804 2.6047L3.53559 2.58225L3.51316 2.55982L3.49074 2.5374L3.46835 2.51501L3.44598 2.49264L3.42363 2.47029L3.4013 2.44796L3.37899 2.42565L3.35671 2.40336L3.33444 2.38109L3.3122 2.35885L3.28998 2.33663L3.26779 2.31444L3.24562 2.29227L3.22347 2.27012L3.20135 2.248L3.17925 2.2259L3.15718 2.20383L3.13513 2.18178L3.11311 2.15976L3.09112 2.13776L3.06915 2.1158L3.04721 2.09386L3.0253 2.07194L3.00342 2.05006L2.98156 2.0282L2.95974 2.00638L2.93794 1.98458L2.91617 1.96281L2.89443 1.94107L2.87273 1.91936L2.85105 1.89768L2.8294 1.87603L2.80779 1.85442L2.78621 1.83284L2.76465 1.81128L2.74314 1.78976L2.72165 1.76828L2.7002 1.74683L2.67878 1.72541L2.6574 1.70402L2.63605 1.68267L2.61473 1.66135L2.59345 1.64007L2.57221 1.61883L2.551 1.59762L2.52983 1.57645L2.50869 1.55531L2.48759 1.53421L2.46653 1.51315L2.44551 1.49213L2.42453 1.47114L2.40358 1.45019L2.38267 1.42929L2.36181 1.40842L2.34098 1.38759L2.32019 1.3668L2.29944 1.34605L2.27874 1.32534L2.25807 1.30468L2.23745 1.28405L2.21687 1.26347L2.19633 1.24293L2.17583 1.22243L2.15538 1.20198L2.13497 1.18157L2.1146 1.1612L2.09428 1.14088L2.074 1.1206L2.05377 1.10037L2.03358 1.08018L2.01344 1.06004L1.99335 1.03994L1.9733 1.0199L1.9533 0.999894L1.93335 0.97994L1.91344 0.960033L1.89358 0.940174L1.87377 0.920364L1.85401 0.900603L1.8343 0.88089L1.81464 0.861228L1.79503 0.841615L1.77547 0.822053L1.75596 0.802541L1.7365 0.783081L1.71709 0.763672L1.69773 0.744314L1.67843 0.72501L1.65918 0.705757L1.63998 0.686558L1.62083 0.667412L1.60174 0.64832L1.5827 0.629282L1.56372 0.610298L1.54479 0.59137L1.52592 0.572496L1.5071 0.553679L1.48834 0.534917L1.46964 0.516212L1.45099 0.497563L1.4324 0.478972L1.41387 0.460438L1.39539 0.441962L1.37698 0.423545L1.35862 0.405186L1.34032 0.386886L1.32208 0.368646L1.3039 0.350465L1.28578 0.332345L1.26772 0.314285L1.24972 0.296287L1.23179 0.278349L1.21391 0.260473L1.1961 0.242659L1.17835 0.224908L1.16066 0.20722L1.14304 0.189595L1.12548 0.172033L1.10798 0.154536L1.09055 0.137102L1.07318 0.119734L1.05588 0.102431L1.03864 0.0851931L1.02147 0.0680211L1.00436 0.0509152L0.987325 0.0338767L0.970353 0.0169043L0.95345 0L0.0695821 0.883906L0.0864857 0.90081L0.103457 0.917782L0.120495 0.934821L0.1376 0.951927L0.154772 0.969099L0.172008 0.986336L0.189311 1.00364L0.206678 1.02101L0.224111 1.03844L0.241608 1.05594L0.259169 1.0735L0.276793 1.09113L0.29448 1.10881L0.312231 1.12656L0.330044 1.14438L0.347919 1.16225L0.365856 1.18019L0.383854 1.19819L0.401913 1.21625L0.420032 1.23437L0.438212 1.25255L0.456451 1.27079L0.47475 1.28909L0.493108 1.30745L0.511525 1.32587L0.530001 1.34434L0.548533 1.36288L0.567124 1.38147L0.585771 1.40012L0.604476 1.41882L0.623237 1.43758L0.642053 1.4564L0.660926 1.47528L0.679854 1.4942L0.698836 1.51319L0.717874 1.53223L0.736965 1.55132L0.75611 1.57046L0.775309 1.58966L0.79456 1.60892L0.813864 1.62822L0.833221 1.64758L0.852629 1.66699L0.872089 1.68645L0.891599 1.70596L0.91116 1.72552L0.930773 1.74513L0.950434 1.7648L0.970146 1.78451L0.989906 1.80427L1.00972 1.82408L1.02957 1.84394L1.04948 1.86385L1.06943 1.8838L1.08943 1.9038L1.10948 1.92385L1.12958 1.94395L1.14972 1.96409L1.1699 1.98427L1.19014 2.00451L1.21041 2.02479L1.23073 2.04511L1.2511 2.06547L1.27151 2.08589L1.29196 2.10634L1.31246 2.12684L1.333 2.14738L1.35358 2.16796L1.3742 2.18858L1.39487 2.20925L1.41557 2.22996L1.43632 2.25071L1.45711 2.27149L1.47794 2.29232L1.49881 2.31319L1.51971 2.3341L1.54066 2.35505L1.56164 2.37603L1.58267 2.39706L1.60373 2.41812L1.62483 2.43922L1.64596 2.46035L1.66713 2.48153L1.68834 2.50273L1.70958 2.52398L1.73086 2.54526L1.75218 2.56658L1.77353 2.58793L1.79491 2.60931L1.81633 2.63073L1.83778 2.65218L1.85927 2.67367L1.88079 2.69519L1.90234 2.71674L1.92392 2.73833L1.94554 2.75994L1.96718 2.78159L1.98886 2.80327L2.01057 2.82497L2.0323 2.84671L2.05407 2.86848L2.07587 2.89028L2.0977 2.91211L2.11955 2.93396L2.14144 2.95585L2.16335 2.97776L2.18529 2.9997L2.20725 3.02167L2.22925 3.04366L2.25127 3.06568L2.27331 3.08773L2.29538 3.1098L2.31748 3.1319L2.3396 3.15402L2.36175 3.17617L2.38392 3.19834L2.40611 3.22054L2.42833 3.24276L2.45057 3.265L2.47284 3.28727L2.49512 3.30955L2.51743 3.33186L2.53976 3.35419L2.56211 3.37654L2.58448 3.39892L2.60688 3.42131L2.62929 3.44372L2.65172 3.46616L2.67417 3.48861L2.69664 3.51108L2.71913 3.53357L2.74164 3.55608L2.76416 3.5786L2.7867 3.60114L2.80926 3.6237L2.83184 3.64628L2.85443 3.66887L2.87704 3.69148L2.89966 3.7141L2.9223 3.73674L2.94495 3.7594L2.96762 3.78207L2.9903 3.80475L3.01299 3.82744L3.0357 3.85015L3.05842 3.87287L3.08115 3.89561L3.1039 3.91836L3.12666 3.94111L3.14943 3.96388L3.1722 3.98666L3.19499 4.00945L3.21779 4.03226L3.24061 4.05507L3.26342 4.07789L3.28625 4.10072L3.30909 4.12355L3.33193 4.1464L3.35479 4.16925L3.37765 4.19212L3.40052 4.21499L3.42339 4.23786L3.44627 4.26074L3.46916 4.28363L3.49205 4.30653L3.51495 4.32942L3.53785 4.35233L3.56076 4.37524L3.58367 4.39815L3.60659 4.42107L3.62951 4.44399L3.65243 4.46691L3.67535 4.48983L3.69828 4.51276L3.72121 4.53569L3.74414 4.55862L3.76707 4.58155L3.79 4.60449L3.81293 4.62742L3.83587 4.65035L3.8588 4.67329L3.88173 4.69622L3.90466 4.71915L3.92759 4.74208L3.95051 4.76501L3.97344 4.78793L3.99636 4.81085L4.01928 4.83377L4.04219 4.85669L4.0651 4.8796L4.08801 4.90251L4.11091 4.92541L4.13381 4.94831L4.15071 4.96521L4.13288 4.98303L4.11 5.00591L4.08712 5.0288L4.06423 5.05169L4.04133 5.07459L4.01843 5.09749L3.99552 5.1204L3.97261 5.14331L3.9497 5.16623L3.92678 5.18915L3.90386 5.21207L3.88093 5.23499L3.85801 5.25792L3.83508 5.28085L3.81215 5.30378L3.78922 5.32671L3.76629 5.34964L3.74335 5.37258L3.72042 5.39551L3.69749 5.41844L3.67456 5.44138L3.65163 5.46431L3.6287 5.48724L3.60577 5.51016L3.58285 5.53309L3.55993 5.55601L3.53701 5.57893L3.51409 5.60185L3.49118 5.62476L3.46827 5.64767L3.44537 5.67057L3.42247 5.69347L3.39958 5.71637L3.37669 5.73925L3.35381 5.76214L3.33094 5.78501L3.30807 5.80788L3.28521 5.83074L3.26235 5.8536L3.23951 5.87644L3.21667 5.89928L3.19384 5.92211L3.17102 5.94493L3.14821 5.96774L3.12541 5.99054L3.10262 6.01334L3.07984 6.03612L3.05708 6.05888L3.03432 6.08164L3.01157 6.10439L2.98884 6.12712L2.96612 6.14985L2.94341 6.17255L2.92072 6.19525L2.89803 6.21793L2.87537 6.2406L2.85271 6.26325L2.83008 6.28589L2.80745 6.30852L2.78485 6.33113L2.76225 6.35372L2.73968 6.3763L2.71712 6.39885L2.69458 6.4214L2.67205 6.44392L2.64955 6.46643L2.62706 6.48892L2.60459 6.51139L2.58214 6.53384L2.55971 6.55628L2.53729 6.57869L2.5149 6.60108L2.49253 6.62345L2.47018 6.64581L2.44785 6.66814L2.42554 6.69045L2.40326 6.71273L2.38099 6.735L2.35875 6.75724L2.33653 6.77946L2.31434 6.80165L2.29217 6.82383L2.27002 6.84597L2.2479 6.8681L2.2258 6.89019L2.20373 6.91227L2.18168 6.93431L2.15966 6.95633L2.13767 6.97833L2.11571 7.0003L2.09377 7.02224L2.07185 7.04415L2.04997 7.06603L2.02812 7.08789L2.00629 7.10972L1.98449 7.13152L1.96272 7.15328L1.94098 7.17502L1.91928 7.19673L1.8976 7.21841L1.87595 7.24006L1.85434 7.26167L1.83276 7.28326L1.81121 7.30481L1.78969 7.32633L1.7682 7.34781L1.74675 7.36927L1.72533 7.39069L1.70395 7.41207L1.6826 7.43342L1.66128 7.45474L1.64 7.47602L1.61876 7.49726L1.59755 7.51847L1.57638 7.53965L1.55524 7.56078L1.53414 7.58188L1.51308 7.60294L1.49206 7.62397L1.47108 7.64495L1.45013 7.6659L1.42922 7.68681L1.40836 7.70768L1.38753 7.7285L1.36674 7.74929L1.34599 7.77004L1.32529 7.79075L1.30462 7.81141L1.284 7.83204L1.26342 7.85262L1.24288 7.87316L1.22238 7.89366L1.20193 7.91411L1.18152 7.93452L1.16115 7.95489L1.14083 7.97521L1.12055 7.99549L1.10032 8.01572L1.08014 8.03591L1.05999 8.05605L1.0399 8.07615L1.01985 8.0962L0.999851 8.1162L0.979898 8.13615L0.959992 8.15606L0.940134 8.17592L0.920324 8.19573L0.900564 8.21549L0.880853 8.2352L0.86119 8.25486L0.841579 8.27448L0.822018 8.29404L0.802507 8.31355L0.783047 8.33301L0.763639 8.35242L0.744282 8.37178L0.724978 8.39108L0.705727 8.41034L0.686528 8.42953L0.667383 8.44868L0.648292 8.46777L0.629255 8.48681L0.610272 8.50579L0.591345 8.52472L0.572472 8.5436L0.553655 8.56241L0.534894 8.58118L0.51619 8.59988L0.497542 8.61853L0.478952 8.63712L0.460418 8.65565L0.441944 8.67413L0.423527 8.69255L0.405169 8.71091L0.38687 8.72921L0.36863 8.74745L0.350451 8.76563L0.332331 8.78375L0.314272 8.80181L0.296274 8.81981L0.278337 8.83774L0.260463 8.85562L0.242649 8.87343L0.224899 8.89118L0.207211 8.90887L0.189587 8.9265L0.172026 8.94406L0.154529 8.96156L0.137097 8.97899L0.11973 8.99636L0.102427 9.01366L0.0851894 9.0309L0.0680188 9.04807L0.0509136 9.06518L0.0338752 9.08222L0.0169042 9.09919L0 9.11609L0.883868 10L0.900772 9.98309L0.917743 9.96612L0.934781 9.94908L0.951886 9.93198L0.969057 9.91481L0.986294 9.89757L1.0036 9.88026L1.02096 9.8629L1.0384 9.84546L1.05589 9.82796L1.07345 9.8104L1.09108 9.79278L1.10877 9.77509L1.12652 9.75734L1.14433 9.73952L1.1622 9.72165L1.18014 9.70371L1.19814 9.68571L1.2162 9.66765L1.23432 9.64953L1.2525 9.63135L1.27074 9.61311L1.28904 9.59481L1.30739 9.57645L1.32581 9.55804L1.34429 9.53956L1.36282 9.52103L1.38141 9.50244L1.40006 9.48379L1.41876 9.46508L1.43752 9.44632L1.45634 9.4275L1.47521 9.40863L1.49414 9.3897L1.51312 9.37072L1.53216 9.35168L1.55125 9.33259L1.5704 9.31344L1.58959 9.29424L1.60885 9.27499L1.62815 9.25568L1.64751 9.23633L1.66691 9.21692L1.68637 9.19746L1.70589 9.17795L1.72545 9.15838L1.74506 9.13877L1.76472 9.11911L1.78443 9.0994L1.80419 9.07963L1.824 9.05982L1.84386 9.03996L1.86377 9.02006L1.88372 9.0001L1.90372 8.9801L1.92377 8.96005L1.94386 8.93996L1.964 8.91982L1.98419 8.89963L2.00442 8.8794L2.0247 8.85912L2.04502 8.8388L2.06539 8.81843L2.08579 8.79802L2.10625 8.77757L2.12674 8.75707L2.14728 8.73653L2.16787 8.71595L2.18849 8.69532L2.20915 8.67465L2.22986 8.65395L2.25061 8.6332L2.2714 8.61241L2.29222 8.59158L2.31309 8.57071L2.334 8.5498L2.35494 8.52886L2.37593 8.50787L2.39695 8.48685L2.41801 8.46579L2.43911 8.44469L2.46025 8.42355L2.48142 8.40238L2.50263 8.38117L2.52387 8.35993L2.54515 8.33864L2.56647 8.31733L2.58782 8.29598L2.6092 8.27459L2.63062 8.25317L2.65207 8.23172L2.67356 8.21023L2.69507 8.18871L2.71662 8.16716L2.73821 8.14558L2.75982 8.12396L2.78147 8.10232L2.80314 8.08064L2.82485 8.05893L2.84659 8.03719L2.86836 8.01542L2.89016 7.99362L2.91198 7.9718L2.93384 7.94994L2.95572 7.92806L2.97763 7.90614L2.99957 7.8842L3.02154 7.86223L3.04353 7.84024L3.06555 7.81822L3.0876 7.79617L3.10967 7.7741L3.13177 7.752L3.15389 7.72988L3.17604 7.70773L3.19821 7.68556L3.2204 7.66336L3.24262 7.64115L3.26486 7.6189L3.28712 7.59664L3.30941 7.57435L3.33172 7.55204L3.35405 7.52971L3.3764 7.50736L3.39877 7.48499L3.42116 7.46259L3.44357 7.44018L3.46601 7.41775L3.48846 7.3953L3.51093 7.37283L3.53342 7.35034L3.55592 7.32783L3.57845 7.3053L3.60099 7.28276L3.62355 7.2602L3.64612 7.23762L3.66871 7.21503L3.69132 7.19242L3.71394 7.1698L3.73658 7.14716L3.75924 7.12451L3.7819 7.10184L3.80458 7.07916L3.82728 7.05646L3.84999 7.03375L3.87271 7.01103L3.89544 6.9883L3.91819 6.96555L3.94094 6.94279L3.96371 6.92002L3.98649 6.89724L4.00928 6.87445L4.03208 6.85165L4.05489 6.82884L4.07771 6.80602L4.10054 6.78319L4.12338 6.76035L4.14622 6.7375L4.16908 6.71465L4.19194 6.69179L4.2148 6.66892L4.23768 6.64604L4.26056 6.62316L4.28345 6.60027L4.30634 6.57738L4.32924 6.55448L4.35214 6.53158L4.37505 6.50867L4.39796 6.48575L4.42088 6.46284L4.44379 6.43992L4.46672 6.417L4.48964 6.39407L4.51257 6.37114L4.5355 6.34821L4.55843 6.32528L4.58136 6.30235L4.60429 6.27942L4.62722 6.25648L4.65015 6.23355L4.67308 6.21062L4.69601 6.18769L4.71894 6.16476L4.74187 6.14183L4.7648 6.1189L4.78772 6.09597L4.81064 6.07305L4.83356 6.05013L4.85648 6.02722L4.87939 6.0043L4.90229 5.9814L4.9252 5.95849L4.94809 5.9356L4.97099 5.9127L4.99387 5.88982L5.01675 5.86694L5.03457 5.84911L5.04128 5.85581L5.06364 5.87818L5.08599 5.90053L5.10831 5.92286L5.13062 5.94516L5.1529 5.96745L5.17516 5.98971L5.1974 6.01194L5.21961 6.03416L5.2418 6.05635L5.26397 6.07852L5.28611 6.10066L5.30822 6.12278L5.33032 6.14487L5.35238 6.16694L5.37442 6.18898L5.39644 6.21099L5.41843 6.23298L5.44039 6.25495L5.46232 6.27688L5.48423 6.29879L5.50611 6.32067L5.52796 6.34252L5.54978 6.36434L5.57157 6.38613L5.59333 6.40789L5.61506 6.42963L5.63676 6.45133L5.65844 6.473L5.68008 6.49464L5.70168 6.51625L5.72326 6.53783L5.7448 6.55938L5.76632 6.58089L5.7878 6.60237L5.80924 6.62381L5.83065 6.64523L5.85203 6.6666L5.87337 6.68795L5.89468 6.70926L5.91595 6.73053L5.93719 6.75177L5.95839 6.77297L5.97956 6.79414L6.00068 6.81527L6.02178 6.83636L6.04283 6.85741L6.06384 6.87843L6.08482 6.89941L6.10576 6.92035L6.12666 6.94125L6.14752 6.96211L6.16834 6.98293L6.18912 7.00371L6.20986 7.02445L6.23056 7.04515L6.25121 7.06581L6.27183 7.08642L6.2924 7.107L6.31293 7.12753L6.33342 7.14802L6.35387 7.16846L6.37427 7.18886L6.39462 7.20922L6.41494 7.22954L6.4352 7.2498L6.45543 7.27003L6.47561 7.29021L6.49574 7.31034L6.51582 7.33043L6.53586 7.35047L6.55585 7.37046L6.5758 7.3904L6.59569 7.4103L6.61554 7.43015L6.63534 7.44995L6.65509 7.4697L6.67479 7.4894L6.69445 7.50906L6.71405 7.52866L6.7336 7.54821L6.7531 7.56771L6.77255 7.58716L6.79195 7.60656L6.81129 7.62591L6.83059 7.64521L6.84983 7.66445L6.86902 7.68364L6.88815 7.70277L6.90723 7.72185L6.92626 7.74088L6.94523 7.75985L6.96415 7.77877L6.98301 7.79763L7.00181 7.81644L7.02056 7.83519L7.03926 7.85388L7.05789 7.87252L7.07647 7.8911L7.09499 7.90962L7.11346 7.92809L7.13186 7.94649L7.15021 7.96484L7.1685 7.98313L7.18672 8.00136L7.20489 8.01953L7.223 8.03763L7.24105 8.05568L7.25903 8.07367L7.27696 8.09159L7.29482 8.10946L7.31262 8.12726L7.33036 8.145L7.34803 8.16267L7.36565 8.18029L7.38319 8.19784L7.40068 8.21532L7.4181 8.23274L7.43545 8.2501L7.45274 8.26739L7.46997 8.28461L7.48712 8.30177L7.50422 8.31886L7.52124 8.33589L7.5382 8.35285L7.55509 8.36974L7.57191 8.38656L7.58867 8.40332L7.60535 8.42L7.62197 8.43662L7.63852 8.45317L7.655 8.46965L7.6714 8.48606L7.68774 8.5024L7.70401 8.51866L7.7202 8.53486L7.73633 8.55098L7.75238 8.56703L7.76836 8.58301L7.78426 8.59892L7.8001 8.61476L7.81586 8.63052L7.83154 8.6462L7.84715 8.66181L7.86269 8.67735L7.87815 8.69281L7.89354 8.7082L7.90885 8.72351L7.92408 8.73875L7.93924 8.75391L7.95432 8.76899L7.96932 8.78399L7.98425 8.79892L7.9991 8.81377L8.01387 8.82854L8.02856 8.84323L8.04317 8.85784L8.0577 8.87237L8.07215 8.88682L8.08652 8.90119L8.10081 8.91549L8.11502 8.9297L8.12915 8.94382L8.1432 8.95787L8.15716 8.97184L8.17104 8.98572L8.18484 8.99952L8.19856 9.01323L8.21219 9.02686L8.22573 9.04041L8.2392 9.05387L8.25257 9.06725L8.26587 9.08055L8.27907 9.09375L8.29219 9.10687L8.30523 9.11991L8.31818 9.13286L8.33104 9.14572L8.34381 9.15849L8.35649 9.17118L8.36909 9.18377L8.3816 9.19628L8.39402 9.2087L8.40635 9.22103L8.41859 9.23327L8.43073 9.24542L8.44279 9.25748L8.45476 9.26945L8.46664 9.28133L8.47842 9.29311L8.49012 9.3048L8.50172 9.31641L8.51322 9.32791L8.52464 9.33933L8.53596 9.35065L8.54718 9.36188L8.55832 9.37301L8.56935 9.38405L8.5803 9.39499L8.59114 9.40584L8.60189 9.41659L8.61255 9.42724L8.62311 9.4378L8.63357 9.44826L8.64393 9.45863L8.6542 9.46889L8.66437 9.47906L8.67443 9.48913L8.68441 9.4991L8.69428 9.50898L8.70405 9.51875L8.71372 9.52842L8.72329 9.53799L8.73276 9.54746L8.74213 9.55683L8.7514 9.5661L8.76056 9.57526L8.76962 9.58433L8.77859 9.59329L8.78744 9.60215L8.7962 9.6109L8.80485 9.61955L8.81339 9.6281L8.82183 9.63654L8.83017 9.64487L8.8384 9.65311L8.84653 9.66123L8.85455 9.66925L8.86246 9.67716L8.87026 9.68497L8.87796 9.69267L8.88555 9.70026L8.89304 9.70774L8.90041 9.71512L8.90768 9.72238L8.91483 9.72954L8.92188 9.73659L8.92882 9.74353L8.93564 9.75035L8.94236 9.75707L8.94897 9.76367L8.95546 9.77017L8.96184 9.77655L8.96811 9.78282L8.97427 9.78898L8.98031 9.79502L8.98624 9.80096L8.99206 9.80677L8.99777 9.81248L9.00335 9.81807L9.00883 9.82354L9.01419 9.8289L9.01943 9.83414L9.02456 9.83927L9.02957 9.84428L9.03446 9.84918L9.03924 9.85395L9.0439 9.85861L9.04844 9.86316L9.05287 9.86758L9.05717 9.87189L9.06136 9.87607L9.06542 9.88014L9.06937 9.88409L9.0732 9.88791L9.0769 9.89162L9.08049 9.89521L9.08395 9.89867L9.0873 9.90201L9.09052 9.90523L9.09362 9.90833L9.09659 9.91131L9.09944 9.91416L9.10217 9.91689L9.10478 9.91949L9.10726 9.92197L9.10961 9.92433L9.11184 9.92656L9.11395 9.92867L9.11593 9.93065L9.9998 9.04674Z" fill="inherit"/>
</svg>
