<svg width="16" height="16" viewBox="0 0 16 16" fill="#4F4F4F" xmlns="http://www.w3.org/2000/svg">
<path fill-rule="evenodd" clip-rule="evenodd" d="M12.362 0.341375C12.8172 -0.113792 13.5552 -0.113792 14.0103 0.341375L15.6586 1.98968C16.1138 2.44485 16.1138 3.18282 15.6586 3.63798L14.0103 5.28629L10.7137 1.98968L12.362 0.341375ZM3.29661 16.0003L0 12.7037V16.0003H3.29661ZM13.1866 6.11045L9.88996 2.81384L0.824285 11.8795L0.835622 11.8909C1.19336 11.664 1.75506 11.7802 2.1634 12.1886C2.57174 12.5969 2.68799 13.1586 2.46111 13.5163L2.48389 13.5391C2.84163 13.3122 3.40334 13.4285 3.81169 13.8368C4.22003 14.2452 4.33628 14.8069 4.10939 15.1646L4.12089 15.1761L13.1866 6.11045Z" fill="inherit"/>
</svg>
