<svg width="13" height="11" viewBox="0 0 13 11" fill="#4F4F4F" xmlns="http://www.w3.org/2000/svg">
<path d="M8.66667 5.5C8.66667 4.82778 8.10952 4.27778 7.42857 4.27778C6.74762 4.27778 6.19048 4.82778 6.19048 5.5C6.19048 6.17222 6.74762 6.72222 7.42857 6.72222C8.10952 6.72222 8.66667 6.17222 8.66667 5.5ZM7.42857 0C4.3519 0 1.85714 2.46278 1.85714 5.5H0L2.47619 7.94444L4.95238 5.5H3.09524C3.09524 3.135 5.03286 1.22222 7.42857 1.22222C9.82429 1.22222 11.7619 3.135 11.7619 5.5C11.7619 7.865 9.82429 9.77778 7.42857 9.77778C6.49381 9.77778 5.62714 9.47833 4.91524 8.98333L4.03619 9.86333C4.97714 10.5722 6.15333 11 7.42857 11C10.5052 11 13 8.53722 13 5.5C13 2.46278 10.5052 0 7.42857 0Z" fill="inherit"/>
</svg>
