<svg width="18" height="17" viewBox="0 0 18 17" fill="none" xmlns="http://www.w3.org/2000/svg">
<path d="M14.8398 7.41016C14.8398 6.43359 14.651 5.51562 14.2734 4.65625C13.9089 3.79688 13.401 3.04818 12.75 2.41016C12.112 1.77214 11.3633 1.27083 10.5039 0.90625C9.64453 0.528646 8.72656 0.339844 7.75 0.339844C6.77344 0.339844 5.85547 0.528646 4.99609 0.90625C4.13672 1.27083 3.38151 1.77214 2.73047 2.41016C2.09245 3.04818 1.58464 3.79688 1.20703 4.65625C0.842448 5.51562 0.660156 6.43359 0.660156 7.41016C0.660156 8.38672 0.842448 9.3112 1.20703 10.1836C1.58464 11.043 2.09245 11.7917 2.73047 12.4297C3.38151 13.0677 4.13672 13.5755 4.99609 13.9531C5.85547 14.3177 6.77344 14.5 7.75 14.5C8.72656 14.5 9.64453 14.3177 10.5039 13.9531C11.3633 13.5755 12.112 13.0677 12.75 12.4297C13.401 11.7917 13.9089 11.043 14.2734 10.1836C14.651 9.3112 14.8398 8.38672 14.8398 7.41016ZM7.75 12.8398C7.00781 12.8398 6.30469 12.6966 5.64062 12.4102C4.98958 12.1237 4.41667 11.7396 3.92188 11.2578C3.42708 10.763 3.03646 10.1901 2.75 9.53906C2.47656 8.875 2.33984 8.16536 2.33984 7.41016C2.33984 6.66797 2.47656 5.97135 2.75 5.32031C3.03646 4.65625 3.42708 4.08333 3.92188 3.60156C4.41667 3.10677 4.98958 2.71615 5.64062 2.42969C6.30469 2.14323 7.00781 2 7.75 2C8.49219 2 9.1888 2.14323 9.83984 2.42969C10.5039 2.71615 11.0833 3.10677 11.5781 3.60156C12.0729 4.08333 12.457 4.65625 12.7305 5.32031C13.0169 5.97135 13.1602 6.66797 13.1602 7.41016C13.1602 8.16536 13.0169 8.875 12.7305 9.53906C12.457 10.1901 12.0729 10.763 11.5781 11.2578C11.0833 11.7396 10.5039 12.1237 9.83984 12.4102C9.1888 12.6966 8.49219 12.8398 7.75 12.8398ZM12.7305 13.6016L13.9414 12.4102L17.3203 15.7891L16.1289 17L12.7305 13.6016Z" fill="#4D77FF"/>
</svg>
