<svg width="14" height="17" viewBox="0 0 14 17" fill="#4F4F4F" xmlns="http://www.w3.org/2000/svg">
<path fill-rule="evenodd" clip-rule="evenodd" d="M9 0.166626H6.5V0.166733H4.99999L4.49999 1.18525H7.49999V1.18514H9.5L9 0.166626ZM14 1.18555H0V3.22259H14V1.18555Z" fill="inherit"/>
<path fill-rule="evenodd" clip-rule="evenodd" d="M13 4.24097H1V15.9724C1 16.5247 1.44772 16.9724 2 16.9724H12C12.5523 16.9724 13 16.5247 13 15.9724V4.24097ZM10.0843 12.738L10.0855 12.7392L9.38489 13.4528L9.38372 13.4516L9.38248 13.4503L9.38116 13.449L9.37977 13.4476L9.3783 13.4461L9.37677 13.4445L9.37516 13.4429L9.37347 13.4411L9.37172 13.4394L9.36989 13.4375L9.36798 13.4356L9.36601 13.4335L9.36397 13.4315L9.36185 13.4293L9.35966 13.4271L9.3574 13.4248L9.35507 13.4224L9.35267 13.42L9.3502 13.4174L9.34766 13.4149L9.34505 13.4122L9.34237 13.4095L9.33961 13.4067L9.33679 13.4038L9.33391 13.4008L9.33095 13.3978L9.32792 13.3947L9.32482 13.3916L9.32166 13.3884L9.31843 13.3851L9.31513 13.3817L9.31176 13.3783L9.30833 13.3748L9.30483 13.3712L9.30126 13.3676L9.29762 13.3639L9.29392 13.3601L9.29015 13.3563L9.28632 13.3524L9.28242 13.3484L9.27846 13.3444L9.27443 13.3403L9.27033 13.3361L9.26617 13.3319L9.26195 13.3275L9.25766 13.3232L9.2533 13.3187L9.24889 13.3142L9.2444 13.3097L9.23986 13.3051L9.23525 13.3004L9.23058 13.2956L9.22585 13.2908L9.22105 13.2859L9.21619 13.2809L9.21127 13.2759L9.20629 13.2709L9.20124 13.2657L9.19613 13.2605L9.19097 13.2553L9.18574 13.2499L9.18045 13.2445L9.1751 13.2391L9.16969 13.2336L9.16422 13.228L9.15868 13.2224L9.15309 13.2167L9.14744 13.2109L9.14173 13.2051L9.13597 13.1992L9.13014 13.1933L9.12425 13.1873L9.11831 13.1812L9.11231 13.1751L9.10625 13.169L9.10013 13.1627L9.09395 13.1564L9.08772 13.1501L9.08143 13.1437L9.07508 13.1372L9.06868 13.1307L9.06222 13.1241L9.0557 13.1175L9.04913 13.1108L9.0425 13.104L9.03582 13.0972L9.02908 13.0904L9.02229 13.0834L9.01544 13.0765L9.00854 13.0694L9.00158 13.0623L8.99457 13.0552L8.9875 13.048L8.98038 13.0408L8.97321 13.0335L8.96599 13.0261L8.95871 13.0187L8.95138 13.0112L8.94399 13.0037L8.93656 12.9961L8.92907 12.9885L8.92153 12.9808L8.91394 12.9731L8.90629 12.9653L8.8986 12.9575L8.89085 12.9496L8.88305 12.9416L8.87521 12.9336L8.86731 12.9256L8.85936 12.9175L8.85137 12.9093L8.84332 12.9011L8.83522 12.8929L8.82708 12.8846L8.81888 12.8763L8.81064 12.8679L8.80235 12.8594L8.794 12.8509L8.78562 12.8424L8.77718 12.8338L8.7687 12.8251L8.76016 12.8165L8.75159 12.8077L8.74296 12.7989L8.73429 12.7901L8.72557 12.7812L8.7168 12.7723L8.70799 12.7633L8.69913 12.7543L8.69023 12.7452L8.68128 12.7361L8.67229 12.7269L8.66325 12.7177L8.65417 12.7085L8.64504 12.6992L8.63587 12.6898L8.62665 12.6805L8.61739 12.671L8.60809 12.6616L8.59874 12.652L8.58935 12.6425L8.57992 12.6329L8.57044 12.6232L8.56092 12.6135L8.55136 12.6038L8.54176 12.594L8.53211 12.5842L8.52243 12.5743L8.5127 12.5644L8.50293 12.5544L8.49312 12.5445L8.48327 12.5344L8.47338 12.5243L8.46345 12.5142L8.45348 12.5041L8.44347 12.4939L8.43342 12.4836L8.42333 12.4734L8.4132 12.463L8.40303 12.4527L8.39282 12.4423L8.38258 12.4319L8.37229 12.4214L8.36197 12.4109L8.35161 12.4003L8.34121 12.3897L8.33078 12.3791L8.32031 12.3684L8.3098 12.3577L8.29925 12.347L8.28867 12.3362L8.27805 12.3254L8.2674 12.3145L8.25671 12.3037L8.24599 12.2927L8.23522 12.2818L8.22443 12.2708L8.2136 12.2597L8.20273 12.2487L8.19183 12.2376L8.1809 12.2264L8.16993 12.2153L8.15893 12.2041L8.14789 12.1928L8.13682 12.1815L8.12572 12.1702L8.11459 12.1589L8.10342 12.1475L8.09222 12.1361L8.08099 12.1247L8.06972 12.1132L8.05843 12.1017L8.0471 12.0902L8.03574 12.0786L8.02435 12.067L8.01293 12.0553L8.00148 12.0437L7.99 12.032L7.97848 12.0203L7.96694 12.0085L7.95537 11.9967L7.94377 11.9849L7.93214 11.9731L7.92048 11.9612L7.90879 11.9493L7.89707 11.9373L7.88533 11.9254L7.87355 11.9134L7.86175 11.9014L7.84992 11.8893L7.83806 11.8772L7.82618 11.8651L7.81427 11.853L7.80233 11.8408L7.79036 11.8286L7.77837 11.8164L7.76635 11.8042L7.75431 11.7919L7.74224 11.7796L7.73014 11.7673L7.71802 11.755L7.70588 11.7426L7.69371 11.7302L7.68151 11.7178L7.66929 11.7053L7.65705 11.6929L7.64478 11.6804L7.63249 11.6678L7.62018 11.6553L7.60784 11.6427L7.59548 11.6301L7.5831 11.6175L7.57069 11.6049L7.55826 11.5922L7.54581 11.5796L7.53334 11.5669L7.52084 11.5541L7.50833 11.5414L7.49579 11.5286L7.48323 11.5158L7.47065 11.503L7.45805 11.4902L7.44543 11.4773L7.43279 11.4644L7.42013 11.4515L7.40745 11.4386L7.39475 11.4257L7.38203 11.4127L7.36929 11.3998L7.35654 11.3868L7.34376 11.3738L7.33097 11.3607L7.31816 11.3477L7.30533 11.3346L7.29248 11.3215L7.27962 11.3084L7.26674 11.2953L7.25384 11.2822L7.24092 11.269L7.22799 11.2558L7.21504 11.2426L7.20207 11.2294L7.18909 11.2162L7.1761 11.203L7.16309 11.1897L7.15006 11.1765L7.13702 11.1632L7.12396 11.1499L7.11089 11.1366L7.0978 11.1232L7.0847 11.1099L7.07159 11.0965L7.06483 11.0896L7.06259 11.0919L7.04907 11.1057L7.03554 11.1195L7.02201 11.1333L7.00848 11.147L6.99495 11.1608L6.98141 11.1746L6.96788 11.1884L6.95434 11.2022L6.9408 11.216L6.92726 11.2298L6.91373 11.2436L6.90019 11.2573L6.88665 11.2711L6.87311 11.2849L6.85958 11.2987L6.84604 11.3125L6.83251 11.3263L6.81897 11.3401L6.80544 11.3539L6.79191 11.3676L6.77838 11.3814L6.76486 11.3952L6.75133 11.409L6.73781 11.4227L6.72429 11.4365L6.71078 11.4503L6.69727 11.464L6.68376 11.4778L6.67026 11.4915L6.65676 11.5053L6.64326 11.519L6.62977 11.5328L6.61628 11.5465L6.6028 11.5603L6.58932 11.574L6.57585 11.5877L6.56239 11.6014L6.54893 11.6151L6.53547 11.6288L6.52203 11.6425L6.50858 11.6562L6.49515 11.6699L6.48172 11.6836L6.4683 11.6973L6.45489 11.7109L6.44148 11.7246L6.42808 11.7382L6.41469 11.7519L6.40131 11.7655L6.38794 11.7791L6.37458 11.7927L6.36122 11.8063L6.34787 11.8199L6.33454 11.8335L6.32121 11.8471L6.30789 11.8606L6.29458 11.8742L6.28129 11.8877L6.268 11.9013L6.25472 11.9148L6.24146 11.9283L6.22821 11.9418L6.21496 11.9553L6.20173 11.9688L6.18851 11.9822L6.17531 11.9957L6.16211 12.0091L6.14893 12.0226L6.13576 12.036L6.1226 12.0494L6.10946 12.0628L6.09633 12.0761L6.08321 12.0895L6.07011 12.1028L6.05702 12.1162L6.04395 12.1295L6.03089 12.1428L6.01784 12.1561L6.00481 12.1693L5.9918 12.1826L5.9788 12.1958L5.96582 12.2091L5.95285 12.2223L5.9399 12.2355L5.92696 12.2486L5.91404 12.2618L5.90114 12.2749L5.88825 12.2881L5.87539 12.3012L5.86253 12.3143L5.8497 12.3273L5.83689 12.3404L5.82409 12.3534L5.81131 12.3664L5.79855 12.3794L5.78581 12.3924L5.77309 12.4054L5.76038 12.4183L5.7477 12.4312L5.73504 12.4441L5.72239 12.457L5.70977 12.4699L5.69716 12.4827L5.68458 12.4955L5.67202 12.5083L5.65948 12.5211L5.64696 12.5338L5.63446 12.5466L5.62198 12.5593L5.60952 12.572L5.59709 12.5846L5.58468 12.5973L5.57229 12.6099L5.55993 12.6225L5.54758 12.6351L5.53526 12.6476L5.52297 12.6601L5.5107 12.6726L5.49845 12.6851L5.48623 12.6976L5.47403 12.71L5.46185 12.7224L5.4497 12.7348L5.43757 12.7471L5.42548 12.7594L5.4134 12.7717L5.40135 12.784L5.38933 12.7963L5.37733 12.8085L5.36536 12.8207L5.35342 12.8328L5.3415 12.845L5.32961 12.8571L5.31775 12.8692L5.30591 12.8812L5.29411 12.8932L5.28233 12.9052L5.27057 12.9172L5.25885 12.9292L5.24716 12.9411L5.23549 12.9529L5.22385 12.9648L5.21225 12.9766L5.20067 12.9884L5.18912 13.0002L5.1776 13.0119L5.16611 13.0236L5.15466 13.0353L5.14323 13.0469L5.13183 13.0585L5.12047 13.0701L5.10914 13.0816L5.09783 13.0932L5.08656 13.1046L5.07532 13.1161L5.06412 13.1275L5.05294 13.1389L5.0418 13.1502L5.03069 13.1615L5.01962 13.1728L5.00858 13.1841L4.99757 13.1953L4.98659 13.2065L4.97565 13.2176L4.96475 13.2287L4.95387 13.2398L4.94304 13.2508L4.93223 13.2618L4.92146 13.2728L4.91073 13.2837L4.90004 13.2946L4.88937 13.3055L4.87875 13.3163L4.86816 13.3271L4.85761 13.3378L4.84709 13.3486L4.83661 13.3592L4.82617 13.3699L4.81577 13.3805L4.8054 13.391L4.79507 13.4015L4.78478 13.412L4.77453 13.4225L4.76431 13.4329L4.75414 13.4432L4.744 13.4536L4.7339 13.4638L4.72384 13.4741L4.71382 13.4843L4.70384 13.4945L4.00327 12.7809L4.01325 12.7707L4.02327 12.7605L4.03333 12.7503L4.04342 12.74L4.05356 12.7297L4.06374 12.7193L4.07395 12.7089L4.0842 12.6984L4.0945 12.688L4.10483 12.6774L4.11519 12.6669L4.1256 12.6563L4.13604 12.6456L4.14652 12.635L4.15703 12.6243L4.16759 12.6135L4.17817 12.6027L4.1888 12.5919L4.19946 12.581L4.21016 12.5702L4.22089 12.5592L4.23166 12.5483L4.24246 12.5373L4.2533 12.5262L4.26417 12.5151L4.27508 12.504L4.28602 12.4929L4.29699 12.4817L4.308 12.4705L4.31904 12.4592L4.33012 12.448L4.34123 12.4367L4.35237 12.4253L4.36354 12.4139L4.37475 12.4025L4.38599 12.3911L4.39726 12.3796L4.40856 12.3681L4.41989 12.3565L4.43126 12.3449L4.44266 12.3333L4.45408 12.3217L4.46554 12.31L4.47703 12.2983L4.48855 12.2866L4.50009 12.2748L4.51167 12.263L4.52328 12.2512L4.53492 12.2394L4.54658 12.2275L4.55828 12.2156L4.57 12.2036L4.58175 12.1917L4.59353 12.1797L4.60534 12.1676L4.61717 12.1556L4.62904 12.1435L4.64093 12.1314L4.65284 12.1193L4.66479 12.1071L4.67676 12.0949L4.68875 12.0827L4.70078 12.0704L4.71283 12.0582L4.7249 12.0459L4.737 12.0335L4.74913 12.0212L4.76128 12.0088L4.77345 11.9964L4.78565 11.984L4.79787 11.9715L4.81012 11.9591L4.82239 11.9466L4.83469 11.934L4.84701 11.9215L4.85935 11.9089L4.87172 11.8963L4.88411 11.8837L4.89652 11.8711L4.90895 11.8584L4.92141 11.8457L4.93388 11.833L4.94638 11.8203L4.9589 11.8075L4.97144 11.7947L4.98401 11.7819L4.99659 11.7691L5.00919 11.7563L5.02182 11.7434L5.03446 11.7305L5.04712 11.7177L5.05981 11.7047L5.07251 11.6918L5.08523 11.6788L5.09798 11.6659L5.11074 11.6529L5.12351 11.6398L5.13631 11.6268L5.14913 11.6138L5.16196 11.6007L5.17481 11.5876L5.18768 11.5745L5.20056 11.5614L5.21347 11.5482L5.22639 11.5351L5.23932 11.5219L5.25227 11.5087L5.26524 11.4955L5.27822 11.4823L5.29122 11.469L5.30424 11.4558L5.31727 11.4425L5.33031 11.4292L5.34337 11.4159L5.35645 11.4026L5.36954 11.3893L5.38264 11.3759L5.39575 11.3625L5.40888 11.3492L5.42203 11.3358L5.43518 11.3224L5.44835 11.309L5.46154 11.2955L5.47473 11.2821L5.48794 11.2687L5.50116 11.2552L5.51439 11.2417L5.52763 11.2282L5.54088 11.2147L5.55415 11.2012L5.56743 11.1877L5.58071 11.1742L5.59401 11.1606L5.60732 11.1471L5.62063 11.1335L5.63396 11.1199L5.6473 11.1063L5.66065 11.0927L5.674 11.0791L5.68737 11.0655L5.70074 11.0519L5.71412 11.0383L5.72751 11.0246L5.74091 11.011L5.75431 10.9973L5.76773 10.9837L5.78115 10.97L5.79457 10.9563L5.80801 10.9426L5.82145 10.929L5.8349 10.9153L5.84835 10.9016L5.86181 10.8878L5.87528 10.8741L5.88875 10.8604L5.90223 10.8467L5.91571 10.8329L5.92919 10.8192L5.94269 10.8055L5.95618 10.7917L5.96968 10.778L5.98319 10.7642L5.99669 10.7505L6.01021 10.7367L6.02372 10.7229L6.03724 10.7092L6.05076 10.6954L6.06428 10.6816L6.07781 10.6678L6.09134 10.6541L6.10487 10.6403L6.1184 10.6265L6.13193 10.6127L6.14547 10.5989L6.159 10.5851L6.17254 10.5713L6.18608 10.5576L6.19961 10.5438L6.21315 10.53L6.22669 10.5162L6.24023 10.5024L6.25376 10.4886L6.2673 10.4748L6.28084 10.461L6.29437 10.4473L6.3079 10.4335L6.32144 10.4197L6.33497 10.4059L6.34849 10.3921L6.36202 10.3783L6.36426 10.3761L6.36256 10.3743L6.34903 10.3606L6.33549 10.3468L6.32196 10.333L6.30842 10.3192L6.29489 10.3054L6.28135 10.2916L6.26781 10.2778L6.25427 10.264L6.24074 10.2503L6.2272 10.2365L6.21366 10.2227L6.20013 10.2089L6.18659 10.1951L6.17305 10.1813L6.15952 10.1675L6.14599 10.1538L6.13246 10.14L6.11893 10.1262L6.10541 10.1124L6.09188 10.0986L6.07836 10.0849L6.06484 10.0711L6.05133 10.0573L6.03782 10.0436L6.02431 10.0298L6.01081 10.0161L5.9973 10.0023L5.98381 9.98856L5.97032 9.97482L5.95683 9.96108L5.94335 9.94735L5.92987 9.93362L5.9164 9.9199L5.90294 9.90618L5.88947 9.89247L5.87602 9.87877L5.86257 9.86507L5.84913 9.85138L5.8357 9.8377L5.82227 9.82402L5.80885 9.81035L5.79544 9.79669L5.78203 9.78304L5.76863 9.76939L5.75524 9.75575L5.74186 9.74212L5.72849 9.7285L5.71512 9.71489L5.70177 9.70128L5.68842 9.68769L5.67509 9.6741L5.66176 9.66053L5.64844 9.64697L5.63513 9.63341L5.62184 9.61987L5.60855 9.60633L5.59527 9.59281L5.58201 9.5793L5.56875 9.5658L5.55551 9.55231L5.54228 9.53884L5.52906 9.52537L5.51585 9.51192L5.50266 9.49848L5.48948 9.48505L5.47631 9.47164L5.46315 9.45824L5.45001 9.44485L5.43688 9.43148L5.42376 9.41812L5.41066 9.40477L5.39757 9.39144L5.3845 9.37812L5.37144 9.36482L5.35839 9.35153L5.34536 9.33826L5.33235 9.325L5.31935 9.31176L5.30636 9.29854L5.2934 9.28533L5.28044 9.27214L5.26751 9.25896L5.25459 9.2458L5.24169 9.23266L5.2288 9.21954L5.21593 9.20643L5.20308 9.19334L5.19025 9.18027L5.17744 9.16722L5.16464 9.15418L5.15186 9.14117L5.1391 9.12817L5.12636 9.11519L5.11364 9.10223L5.10093 9.08929L5.08825 9.07637L5.07558 9.06348L5.06294 9.0506L5.05032 9.03774L5.03771 9.0249L5.02513 9.01208L5.01257 8.99929L5.00002 8.98651L4.9875 8.97376L4.97501 8.96103L4.96253 8.94832L4.95007 8.93563L4.93764 8.92297L4.92523 8.91033L4.91284 8.89771L4.90048 8.88512L4.88813 8.87254L4.87581 8.86L4.86352 8.84747L4.85125 8.83497L4.839 8.8225L4.82677 8.81005L4.81457 8.79762L4.8024 8.78522L4.79025 8.77284L4.77812 8.76049L4.76602 8.74817L4.75395 8.73587L4.7419 8.7236L4.72988 8.71135L4.71788 8.69913L4.70591 8.68694L4.69397 8.67477L4.68205 8.66264L4.67016 8.65053L4.6583 8.63844L4.64646 8.62639L4.63465 8.61436L4.62287 8.60236L4.61112 8.59039L4.5994 8.57845L4.58771 8.56654L4.57604 8.55466L4.5644 8.54281L4.5528 8.53098L4.54122 8.51919L4.52967 8.50743L4.51815 8.4957L4.50666 8.48399L4.49521 8.47232L4.48378 8.46069L4.47238 8.44908L4.46102 8.4375L4.44968 8.42596L4.43838 8.41444L4.42711 8.40297L4.41587 8.39152L4.40467 8.3801L4.39349 8.36872L4.38235 8.35737L4.37124 8.34606L4.36017 8.33478L4.34913 8.32353L4.33812 8.31232L4.32714 8.30114L4.3162 8.29L4.30529 8.27889L4.29442 8.26781L4.28358 8.25677L4.27278 8.24577L4.26201 8.2348L4.25128 8.22387L4.24058 8.21298L4.22992 8.20212L4.2193 8.19129L4.20871 8.18051L4.19816 8.16976L4.18764 8.15905L4.17716 8.14838L4.16672 8.13774L4.15632 8.12714L4.14595 8.11658L4.13562 8.10606L4.12533 8.09558L4.11508 8.08514L4.10486 8.07473L4.09469 8.06437L4.08455 8.05404L4.07445 8.04376L4.06439 8.03351L4.05437 8.02331L4.04439 8.01314L4.74497 7.29956L4.75495 7.30973L4.76497 7.31993L4.77503 7.33018L4.78512 7.34046L4.79526 7.35079L4.80544 7.36115L4.81565 7.37156L4.8259 7.382L4.83619 7.39248L4.84652 7.403L4.85689 7.41356L4.8673 7.42416L4.87774 7.4348L4.88822 7.44547L4.89873 7.45618L4.90928 7.46693L4.91987 7.47772L4.9305 7.48854L4.94116 7.4994L4.95186 7.51029L4.96259 7.52122L4.97336 7.53219L4.98416 7.54319L4.995 7.55423L5.00587 7.56531L5.01678 7.57642L5.02772 7.58756L5.03869 7.59874L5.0497 7.60995L5.06074 7.6212L5.07182 7.63248L5.08293 7.6438L5.09407 7.65514L5.10524 7.66652L5.11645 7.67794L5.12769 7.68939L5.13896 7.70087L5.15026 7.71238L5.16159 7.72392L5.17296 7.7355L5.18435 7.74711L5.19578 7.75874L5.20724 7.77042L5.21873 7.78212L5.23024 7.79385L5.24179 7.80561L5.25337 7.8174L5.26498 7.82923L5.27661 7.84108L5.28828 7.85296L5.29997 7.86487L5.3117 7.87681L5.32345 7.88878L5.33523 7.90078L5.34704 7.91281L5.35887 7.92486L5.37073 7.93695L5.38262 7.94906L5.39454 7.96119L5.40649 7.97336L5.41846 7.98555L5.43045 7.99777L5.44247 8.01002L5.45452 8.02229L5.4666 8.03459L5.4787 8.04691L5.49082 8.05926L5.50297 8.07164L5.51515 8.08404L5.52735 8.09647L5.53957 8.10892L5.55182 8.12139L5.56409 8.13389L5.57639 8.14642L5.58871 8.15897L5.60105 8.17154L5.61342 8.18413L5.6258 8.19675L5.63821 8.20939L5.65065 8.22206L5.6631 8.23474L5.67558 8.24745L5.68808 8.26018L5.7006 8.27293L5.71314 8.28571L5.7257 8.2985L5.73829 8.31132L5.75089 8.32416L5.76351 8.33702L5.77616 8.3499L5.78882 8.3628L5.80151 8.37571L5.81421 8.38865L5.82693 8.40161L5.83967 8.41459L5.85243 8.42759L5.86521 8.4406L5.87801 8.45364L5.89082 8.46669L5.90366 8.47976L5.91651 8.49285L5.92938 8.50596L5.94226 8.51908L5.95516 8.53222L5.96808 8.54538L5.98102 8.55856L5.99397 8.57175L6.00694 8.58496L6.01992 8.59818L6.03292 8.61143L6.04594 8.62468L6.05897 8.63795L6.07201 8.65124L6.08507 8.66454L6.09815 8.67786L6.11123 8.69119L6.12434 8.70454L6.13745 8.7179L6.15058 8.73127L6.16373 8.74466L6.17688 8.75806L6.19005 8.77147L6.20323 8.7849L6.21643 8.79834L6.22964 8.81179L6.24286 8.82526L6.25609 8.83873L6.26933 8.85222L6.28258 8.86572L6.29585 8.87923L6.30912 8.89275L6.32241 8.90629L6.33571 8.91983L6.34902 8.93339L6.36233 8.94695L6.37566 8.96053L6.389 8.97411L6.40234 8.9877L6.4157 9.00131L6.42906 9.01492L6.44244 9.02854L6.45582 9.04217L6.46921 9.05581L6.4826 9.06946L6.49601 9.08311L6.50942 9.09677L6.52284 9.11044L6.53627 9.12412L6.54971 9.1378L6.56315 9.15149L6.5766 9.16519L6.59005 9.1789L6.60351 9.19261L6.61698 9.20632L6.63045 9.22004L6.64392 9.23377L6.65741 9.2475L6.67089 9.26124L6.68438 9.27498L6.69788 9.28873L6.71138 9.30248L6.72488 9.31623L6.73839 9.32999L6.7519 9.34375L6.76542 9.35752L6.77894 9.37129L6.79246 9.38506L6.80598 9.39883L6.81951 9.41261L6.83303 9.42639L6.84656 9.44017L6.8601 9.45395L6.87363 9.46774L6.88716 9.48152L6.9007 9.49531L6.91424 9.5091L6.92777 9.52289L6.94131 9.53668L6.95485 9.55047L6.96839 9.56426L6.98193 9.57804L6.99546 9.59183L7.009 9.60562L7.02253 9.61941L7.03607 9.63319L7.0496 9.64698L7.06313 9.66076L7.06483 9.66249L7.06977 9.65746L7.08284 9.64415L7.09589 9.63085L7.10894 9.61757L7.12196 9.6043L7.13497 9.59105L7.14797 9.57781L7.16095 9.56459L7.17392 9.55138L7.18686 9.53819L7.1998 9.52502L7.21271 9.51186L7.22561 9.49872L7.23849 9.4856L7.25136 9.4725L7.26421 9.45941L7.27703 9.44635L7.28985 9.4333L7.30264 9.42027L7.31542 9.40726L7.32817 9.39426L7.34091 9.38129L7.35363 9.36833L7.36633 9.3554L7.37901 9.34248L7.39167 9.32959L7.40431 9.31671L7.41693 9.30386L7.42953 9.29102L7.44211 9.27821L7.45467 9.26542L7.4672 9.25265L7.47972 9.2399L7.49221 9.22717L7.50469 9.21447L7.51714 9.20179L7.52957 9.18913L7.54197 9.17649L7.55436 9.16388L7.56672 9.15129L7.57905 9.13872L7.59137 9.12618L7.60366 9.11366L7.61593 9.10116L7.62817 9.08869L7.64039 9.07625L7.65259 9.06383L7.66476 9.05143L7.6769 9.03906L7.68902 9.02671L7.70112 9.01439L7.71319 9.0021L7.72523 8.98983L7.73725 8.97759L7.74924 8.96538L7.7612 8.95319L7.77314 8.94103L7.78505 8.9289L7.79694 8.91679L7.8088 8.90472L7.82063 8.89267L7.83243 8.88064L7.8442 8.86865L7.85595 8.85669L7.86767 8.84475L7.87935 8.83285L7.89101 8.82097L7.90265 8.80912L7.91425 8.79731L7.92582 8.78552L7.93736 8.77376L7.94887 8.76204L7.96036 8.75034L7.97181 8.73868L7.98323 8.72705L7.99462 8.71544L8.00598 8.70387L8.0173 8.69234L8.0286 8.68083L8.03986 8.66936L8.0511 8.65792L8.0623 8.64651L8.07346 8.63513L8.0846 8.62379L8.0957 8.61248L8.10677 8.60121L8.11781 8.58997L8.12881 8.57876L8.13978 8.56759L8.15071 8.55645L8.16161 8.54535L8.17248 8.53429L8.18331 8.52325L8.1941 8.51226L8.20486 8.5013L8.21559 8.49037L8.22628 8.47948L8.23693 8.46863L8.24755 8.45782L8.25813 8.44704L8.26868 8.4363L8.27919 8.42559L8.28966 8.41493L8.30009 8.4043L8.31049 8.39371L8.32085 8.38316L8.33117 8.37264L8.34145 8.36217L8.3517 8.35173L8.36191 8.34134L8.37207 8.33098L8.3822 8.32066L8.39229 8.31039L8.40234 8.30015L8.41236 8.28995L8.42233 8.2798L8.43226 8.26968L8.44215 8.25961L8.452 8.24957L8.46181 8.23958L8.47158 8.22963L8.48131 8.21972L8.49099 8.20986L8.50064 8.20003L8.51024 8.19025L8.5198 8.18051L8.52932 8.17082L8.53879 8.16117L8.54823 8.15156L8.55762 8.14199L8.56697 8.13247L8.57627 8.123L8.58553 8.11356L8.59475 8.10418L8.60392 8.09483L8.61305 8.08554L8.62213 8.07629L8.63117 8.06708L8.64016 8.05792L8.64911 8.0488L8.65801 8.03974L8.66687 8.03071L8.67568 8.02174L8.68445 8.01281L8.69316 8.00393L8.70184 7.9951L8.71046 7.98631L8.71904 7.97757L8.72757 7.96888L8.73606 7.96024L8.74449 7.95165L8.75288 7.9431L8.76122 7.93461L8.76951 7.92616L8.77776 7.91777L8.78595 7.90942L8.7941 7.90112L8.8022 7.89288L8.81024 7.88468L8.81824 7.87653L8.82619 7.86844L8.83408 7.86039L8.84193 7.8524L8.84973 7.84446L8.85747 7.83657L8.86517 7.82873L8.87281 7.82095L8.8804 7.81322L8.88795 7.80553L8.89543 7.79791L8.90287 7.79033L8.91025 7.78281L8.91759 7.77534L8.92486 7.76793L8.93209 7.76057L8.93926 7.75327L8.94638 7.74601L8.95345 7.73882L8.96046 7.73168L8.96741 7.72459L8.97432 7.71756L8.98117 7.71058L8.98796 7.70366L8.9947 7.6968L9.00138 7.68999L9.00801 7.68324L9.01458 7.67655L9.0211 7.66991L9.02756 7.66333L9.03396 7.65681L9.04031 7.65035L9.0466 7.64394L9.05283 7.63759L9.059 7.6313L9.06512 7.62507L9.07118 7.6189L9.07719 7.61278L9.08313 7.60673L9.08902 7.60073L9.09484 7.5948L9.10061 7.58892L9.10632 7.58311L9.11197 7.57735L9.11756 7.57166L9.12309 7.56602L9.12856 7.56045L9.13397 7.55494L9.13933 7.54949L9.14462 7.5441L9.14984 7.53877L9.15501 7.53351L9.16012 7.52831L9.16516 7.52317L9.17015 7.5181L9.17507 7.51308L9.17993 7.50813L9.18472 7.50325L9.18946 7.49843L9.19413 7.49367L9.19874 7.48897L9.20328 7.48434L9.20776 7.47978L9.21218 7.47528L9.21653 7.47085L9.22082 7.46648L9.22505 7.46217L9.22921 7.45794L9.2333 7.45377L9.23733 7.44966L9.2413 7.44562L9.2452 7.44165L9.24903 7.43775L9.2528 7.43391L9.2565 7.43014L9.26014 7.42643L9.2637 7.4228L9.26721 7.41923L9.27064 7.41574L9.27401 7.41231L9.27731 7.40895L9.28054 7.40565L9.2837 7.40243L9.2868 7.39928L9.28982 7.3962L9.29278 7.39318L9.29567 7.39024L9.29849 7.38737L9.30124 7.38456L9.30392 7.38183L9.30654 7.37917L9.30908 7.37659L9.31155 7.37407L9.31395 7.37162L9.31628 7.36925L9.31854 7.36695L9.32073 7.36472L9.32284 7.36256L9.32489 7.36048L9.32686 7.35847L9.32876 7.35653L9.33059 7.35467L9.33235 7.35288L9.33403 7.35117L9.33564 7.34953L9.33718 7.34796L9.33865 7.34647L9.34004 7.34505L9.34135 7.34371L9.3426 7.34244L9.34377 7.34125L10.0443 8.05483L10.0432 8.05602L10.0419 8.05729L10.0406 8.05863L10.0392 8.06005L10.0378 8.06154L10.0362 8.0631L10.0346 8.06475L10.0329 8.06646L10.0312 8.06825L10.0293 8.07011L10.0274 8.07205L10.0255 8.07406L10.0234 8.07614L10.0213 8.0783L10.0191 8.08053L10.0169 8.08283L10.0145 8.0852L10.0121 8.08765L10.0097 8.09016L10.0071 8.09275L10.0045 8.09541L10.0018 8.09814L9.99907 8.10095L9.99625 8.10382L9.99336 8.10676L9.9904 8.10977L9.98737 8.11286L9.98428 8.11601L9.98111 8.11923L9.97788 8.12252L9.97458 8.12589L9.97121 8.12931L9.96778 8.13281L9.96428 8.13638L9.96071 8.14001L9.95708 8.14372L9.95337 8.14749L9.94961 8.15132L9.94577 8.15523L9.94187 8.1592L9.93791 8.16324L9.93388 8.16734L9.92978 8.17152L9.92562 8.17575L9.9214 8.18006L9.91711 8.18443L9.91276 8.18886L9.90834 8.19336L9.90386 8.19792L9.89931 8.20255L9.8947 8.20725L9.89003 8.212L9.8853 8.21683L9.8805 8.22171L9.87564 8.22666L9.87072 8.23167L9.86574 8.23675L9.86069 8.24189L9.85559 8.24709L9.85042 8.25235L9.84519 8.25768L9.8399 8.26307L9.83455 8.26852L9.82914 8.27403L9.82367 8.2796L9.81814 8.28523L9.81255 8.29093L9.8069 8.29668L9.80119 8.3025L9.79542 8.30838L9.78959 8.31431L9.7837 8.32031L9.77776 8.32636L9.77176 8.33247L9.7657 8.33865L9.75958 8.34488L9.7534 8.35117L9.74717 8.35752L9.74088 8.36392L9.73453 8.37039L9.72813 8.37691L9.72167 8.38349L9.71515 8.39013L9.70858 8.39682L9.70195 8.40357L9.69527 8.41038L9.68853 8.41724L9.68174 8.42416L9.67489 8.43114L9.66799 8.43817L9.66103 8.44526L9.65402 8.4524L9.64696 8.45959L9.63984 8.46684L9.63266 8.47415L9.62544 8.48151L9.61816 8.48892L9.61083 8.49639L9.60345 8.50391L9.59601 8.51149L9.58852 8.51911L9.58098 8.52679L9.57339 8.53453L9.56574 8.54231L9.55805 8.55015L9.5503 8.55804L9.54251 8.56598L9.53466 8.57397L9.52676 8.58202L9.51881 8.59011L9.51082 8.59826L9.50277 8.60646L9.49467 8.6147L9.48653 8.623L9.47833 8.63135L9.47009 8.63974L9.4618 8.64819L9.45346 8.65668L9.44507 8.66523L9.43663 8.67382L9.42815 8.68246L9.41962 8.69115L9.41104 8.69989L9.40241 8.70868L9.39374 8.71751L9.38502 8.72639L9.37626 8.73532L9.36744 8.74429L9.35859 8.75332L9.34968 8.76238L9.34073 8.7715L9.33174 8.78066L9.3227 8.78987L9.31362 8.79912L9.30449 8.80841L9.29532 8.81776L9.2861 8.82714L9.27684 8.83658L9.26754 8.84605L9.25819 8.85557L9.2488 8.86514L9.23937 8.87475L9.22989 8.8844L9.22038 8.89409L9.21081 8.90383L9.20121 8.91361L9.19157 8.92344L9.18188 8.9333L9.17215 8.94321L9.16238 8.95316L9.15257 8.96315L9.14272 8.97318L9.13283 8.98326L9.1229 8.99337L9.11293 9.00353L9.10292 9.01373L9.09287 9.02397L9.08278 9.03424L9.07265 9.04456L9.06248 9.05492L9.05227 9.06531L9.04203 9.07575L9.03174 9.08622L9.02142 9.09674L9.01106 9.10729L9.00067 9.11788L8.99023 9.12851L8.97976 9.13917L8.96925 9.14988L8.95871 9.16062L8.94812 9.1714L8.93751 9.18221L8.92685 9.19306L8.91616 9.20395L8.90544 9.21488L8.89468 9.22584L8.88388 9.23683L8.87305 9.24786L8.86218 9.25893L8.85128 9.27003L8.84035 9.28117L8.82938 9.29234L8.81838 9.30355L8.80734 9.31479L8.79628 9.32606L8.78517 9.33737L8.77404 9.34871L8.76287 9.36009L8.75167 9.3715L8.74044 9.38294L8.72918 9.39441L8.71788 9.40592L8.70655 9.41745L8.69519 9.42902L8.6838 9.44063L8.67238 9.45226L8.66093 9.46392L8.64945 9.47562L8.63794 9.48734L8.62639 9.4991L8.61482 9.51089L8.60322 9.5227L8.59159 9.53455L8.57993 9.54643L8.56824 9.55833L8.55652 9.57027L8.54478 9.58223L8.533 9.59422L8.5212 9.60625L8.50937 9.61829L8.49751 9.63037L8.48563 9.64248L8.47372 9.65461L8.46178 9.66677L8.44981 9.67896L8.43782 9.69117L8.4258 9.70341L8.41376 9.71568L8.40169 9.72797L8.3896 9.74029L8.37748 9.75264L8.36533 9.76501L8.35316 9.7774L8.34097 9.78983L8.32875 9.80227L8.3165 9.81474L8.30424 9.82724L8.29194 9.83976L8.27963 9.8523L8.26729 9.86487L8.25493 9.87746L8.24255 9.89007L8.23014 9.90271L8.21771 9.91537L8.20526 9.92805L8.19279 9.94075L8.18029 9.95348L8.16778 9.96623L8.15524 9.979L8.14268 9.99179L8.1301 10.0046L8.1175 10.0174L8.10488 10.0303L8.09224 10.0432L8.07958 10.0561L8.0669 10.069L8.0542 10.0819L8.04148 10.0949L8.02875 10.1078L8.01599 10.1208L8.00321 10.1338L7.99042 10.1469L7.97761 10.1599L7.96478 10.173L7.95193 10.1861L7.93907 10.1992L7.92619 10.2123L7.91329 10.2254L7.90037 10.2386L7.88744 10.2518L7.87449 10.265L7.86153 10.2782L7.84855 10.2914L7.83555 10.3046L7.82254 10.3179L7.80951 10.3311L7.79647 10.3444L7.78341 10.3577L7.77034 10.371L7.76541 10.3761L7.77216 10.383L7.78528 10.3963L7.79838 10.4097L7.81146 10.423L7.82453 10.4363L7.83759 10.4496L7.85063 10.4629L7.86366 10.4761L7.87667 10.4894L7.88967 10.5026L7.90265 10.5159L7.91561 10.5291L7.92856 10.5423L7.94149 10.5554L7.95441 10.5686L7.96731 10.5817L7.98019 10.5948L7.99306 10.6079L8.0059 10.621L8.01873 10.6341L8.03154 10.6471L8.04434 10.6602L8.05711 10.6732L8.06987 10.6862L8.08261 10.6992L8.09533 10.7121L8.10803 10.725L8.12071 10.738L8.13337 10.7509L8.14601 10.7637L8.15863 10.7766L8.17123 10.7894L8.1838 10.8022L8.19636 10.815L8.2089 10.8278L8.22142 10.8405L8.23391 10.8533L8.24638 10.866L8.25883 10.8787L8.27126 10.8913L8.28367 10.904L8.29605 10.9166L8.30841 10.9292L8.32075 10.9417L8.33307 10.9543L8.34536 10.9668L8.35763 10.9793L8.36987 10.9918L8.38209 11.0042L8.39428 11.0166L8.40645 11.029L8.4186 11.0414L8.43072 11.0537L8.44281 11.0661L8.45488 11.0783L8.46693 11.0906L8.47895 11.1029L8.49094 11.1151L8.5029 11.1273L8.51484 11.1394L8.52675 11.1515L8.53864 11.1637L8.55049 11.1757L8.56232 11.1878L8.57413 11.1998L8.5859 11.2118L8.59765 11.2238L8.60936 11.2357L8.62105 11.2476L8.63271 11.2595L8.64434 11.2713L8.65594 11.2831L8.66752 11.2949L8.67906 11.3067L8.69057 11.3184L8.70205 11.3301L8.7135 11.3418L8.72493 11.3534L8.73632 11.365L8.74767 11.3766L8.759 11.3881L8.7703 11.3996L8.78156 11.4111L8.79279 11.4225L8.80399 11.4339L8.81516 11.4453L8.8263 11.4567L8.8374 11.468L8.84847 11.4792L8.8595 11.4905L8.87051 11.5017L8.88147 11.5129L8.89241 11.524L8.90331 11.5351L8.91417 11.5462L8.925 11.5572L8.9358 11.5682L8.94656 11.5791L8.95729 11.5901L8.96798 11.601L8.97863 11.6118L8.98925 11.6226L8.99983 11.6334L9.01037 11.6441L9.02088 11.6549L9.03135 11.6655L9.04179 11.6761L9.05219 11.6867L9.06255 11.6973L9.07287 11.7078L9.08315 11.7183L9.0934 11.7287L9.1036 11.7391L9.11377 11.7495L9.1239 11.7598L9.13399 11.7701L9.14404 11.7803L9.15405 11.7905L9.16402 11.8007L9.17396 11.8108L9.18385 11.8208L9.1937 11.8309L9.20351 11.8409L9.21328 11.8508L9.223 11.8607L9.23269 11.8706L9.24233 11.8804L9.25194 11.8902L9.2615 11.8999L9.27102 11.9096L9.28049 11.9193L9.28993 11.9289L9.29932 11.9385L9.30866 11.948L9.31797 11.9574L9.32723 11.9669L9.33644 11.9763L9.34561 11.9856L9.35474 11.9949L9.36383 12.0042L9.37286 12.0134L9.38186 12.0225L9.39081 12.0316L9.39971 12.0407L9.40857 12.0497L9.41738 12.0587L9.42614 12.0676L9.43486 12.0765L9.44353 12.0853L9.45216 12.0941L9.46074 12.1029L9.46927 12.1116L9.47775 12.1202L9.48619 12.1288L9.49458 12.1373L9.50292 12.1458L9.51121 12.1543L9.51945 12.1627L9.52765 12.171L9.5358 12.1793L9.54389 12.1876L9.55194 12.1958L9.55994 12.2039L9.56788 12.212L9.57578 12.2201L9.58363 12.228L9.59143 12.236L9.59917 12.2439L9.60687 12.2517L9.61451 12.2595L9.6221 12.2672L9.62964 12.2749L9.63713 12.2825L9.64457 12.2901L9.65195 12.2976L9.65928 12.3051L9.66656 12.3125L9.67379 12.3199L9.68096 12.3272L9.68808 12.3344L9.69514 12.3416L9.70215 12.3488L9.70911 12.3559L9.71601 12.3629L9.72286 12.3699L9.72966 12.3768L9.73639 12.3836L9.74308 12.3905L9.7497 12.3972L9.75628 12.4039L9.76279 12.4105L9.76925 12.4171L9.77566 12.4236L9.782 12.4301L9.78829 12.4365L9.79453 12.4429L9.8007 12.4491L9.80682 12.4554L9.81288 12.4615L9.81888 12.4677L9.82483 12.4737L9.83071 12.4797L9.83654 12.4856L9.84231 12.4915L9.84802 12.4973L9.85367 12.5031L9.85926 12.5088L9.86479 12.5144L9.87026 12.52L9.87567 12.5255L9.88102 12.531L9.88631 12.5363L9.89154 12.5417L9.89671 12.5469L9.90182 12.5521L9.90686 12.5573L9.91184 12.5624L9.91677 12.5674L9.92162 12.5723L9.92642 12.5772L9.93115 12.582L9.93583 12.5868L9.94043 12.5915L9.94498 12.5961L9.94946 12.6007L9.95388 12.6052L9.95823 12.6096L9.96252 12.614L9.96675 12.6183L9.97091 12.6225L9.975 12.6267L9.97903 12.6308L9.983 12.6348L9.9869 12.6388L9.99073 12.6427L9.9945 12.6465L9.9982 12.6503L10.0018 12.654L10.0054 12.6576L10.0089 12.6612L10.0123 12.6647L10.0157 12.6681L10.019 12.6715L10.0222 12.6748L10.0254 12.678L10.0285 12.6812L10.0315 12.6842L10.0345 12.6873L10.0374 12.6902L10.0402 12.6931L10.0429 12.6959L10.0456 12.6986L10.0482 12.7013L10.0508 12.7039L10.0532 12.7064L10.0556 12.7088L10.058 12.7112L10.0602 12.7135L10.0624 12.7157L10.0645 12.7179L10.0666 12.72L10.0686 12.722L10.0705 12.7239L10.0723 12.7258L10.074 12.7276L10.0757 12.7293L10.0773 12.7309L10.0789 12.7325L10.0803 12.734L10.0817 12.7354L10.0831 12.7367L10.0843 12.738Z" fill="inherit"/>
</svg>
